<svg width="158" height="144" viewBox="0 0 158 144" fill="none" xmlns="http://www.w3.org/2000/svg">
<path d="M152.349 19.0808H5.47982C2.77255 19.0808 0.577881 21.2719 0.577881 23.9748V114.346C0.577881 117.049 2.77255 119.24 5.47982 119.24H152.349C155.056 119.24 157.251 117.049 157.251 114.346V23.9748C157.251 21.2719 155.056 19.0808 152.349 19.0808Z" fill="white"/>
<path d="M152.349 119.59H5.47986C4.08749 119.588 2.75268 119.035 1.76813 118.052C0.783574 117.069 0.229636 115.736 0.227783 114.346V23.9818C0.229631 22.591 0.783346 21.2576 1.7677 20.2736C2.75206 19.2895 4.08685 18.7349 5.47986 18.7312H152.349C153.742 18.7349 155.077 19.2895 156.061 20.2736C157.045 21.2576 157.599 22.591 157.601 23.9818V114.346C157.599 115.736 157.045 117.069 156.061 118.052C155.076 119.035 153.741 119.588 152.349 119.59ZM5.47986 19.4303C4.272 19.4322 3.11425 19.9125 2.26083 20.7659C1.4074 21.6193 0.928059 22.7759 0.92806 23.9818V114.346C0.929912 115.551 1.41007 116.706 2.2633 117.558C3.11653 118.409 4.27322 118.889 5.47986 118.891H152.349C153.556 118.889 154.712 118.409 155.566 117.558C156.419 116.706 156.899 115.551 156.901 114.346V23.9818C156.901 22.7759 156.421 21.6193 155.568 20.7659C154.715 19.9125 153.557 19.4322 152.349 19.4303H5.47986Z" fill="#231F20"/>
<path d="M157.251 103.754H0.577922C0.48562 103.752 0.397603 103.715 0.332324 103.65C0.267044 103.585 0.229576 103.497 0.227783 103.405C0.227783 103.312 0.264672 103.223 0.330336 103.157C0.396 103.092 0.485059 103.055 0.577922 103.055H157.251C157.344 103.055 157.433 103.092 157.498 103.157C157.564 103.223 157.601 103.312 157.601 103.405C157.601 103.497 157.564 103.586 157.498 103.652C157.433 103.717 157.344 103.754 157.251 103.754Z" fill="#231F20"/>
<path d="M98.9388 138.607H58.8899L66.2778 119.24H91.5578L98.9388 138.607Z" fill="white"/>
<path d="M98.9386 138.956H58.8897C58.8329 138.956 58.7768 138.942 58.7267 138.915C58.6766 138.888 58.634 138.85 58.6026 138.802C58.5701 138.756 58.5493 138.703 58.542 138.647C58.5347 138.591 58.5411 138.534 58.5606 138.481L65.9485 119.121C65.973 119.054 66.0177 118.995 66.0766 118.954C66.1355 118.913 66.2057 118.891 66.2777 118.891H91.5717C91.6427 118.891 91.7118 118.914 91.7695 118.955C91.8272 118.996 91.8706 119.054 91.8938 119.121L99.2747 138.481C99.2936 138.534 99.2995 138.591 99.292 138.647C99.2846 138.703 99.2639 138.756 99.2318 138.802C99.1997 138.849 99.157 138.887 99.1072 138.914C99.0575 138.94 99.0021 138.955 98.9456 138.956H98.9386ZM59.4009 138.257H98.4344L91.3126 119.59H66.5158L59.4009 138.257Z" fill="#231F20"/>
<path d="M103.637 137.467H54.1909C52.8953 137.467 51.845 138.516 51.845 139.809V140.348C51.845 141.641 52.8953 142.69 54.1909 142.69H103.637C104.933 142.69 105.983 141.641 105.983 140.348V139.809C105.983 138.516 104.933 137.467 103.637 137.467Z" fill="white"/>
<path d="M103.638 143.039H54.1912C53.4761 143.039 52.7904 142.756 52.2848 142.251C51.7792 141.746 51.4951 141.061 51.4951 140.347V139.816C51.4951 139.102 51.7789 138.416 52.2843 137.91C52.7898 137.404 53.4755 137.119 54.1912 137.117H103.638C104.353 137.119 105.039 137.404 105.545 137.91C106.05 138.416 106.334 139.102 106.334 139.816V140.347C106.334 140.701 106.264 141.051 106.129 141.378C105.993 141.704 105.795 142.001 105.544 142.251C105.294 142.501 104.997 142.699 104.669 142.834C104.342 142.97 103.992 143.039 103.638 143.039ZM54.1912 137.817C53.6612 137.818 53.1536 138.03 52.7795 138.405C52.4054 138.779 52.1954 139.287 52.1954 139.816V140.347C52.1972 140.875 52.4081 141.381 52.782 141.754C53.1559 142.128 53.6624 142.338 54.1912 142.34H103.638C104.166 142.338 104.673 142.128 105.047 141.754C105.421 141.381 105.632 140.875 105.634 140.347V139.816C105.634 139.287 105.423 138.779 105.049 138.405C104.675 138.03 104.168 137.818 103.638 137.817H54.1912Z" fill="#231F20"/>
<path d="M151.656 23.8H6.1731V97.2661H151.656V23.8Z" fill="#3343EA"/>
<path d="M151.656 23.8H6.1731V97.2661H151.656V23.8Z" fill="#D1D3D4"/>
<path d="M62.6226 128.084L92.4404 122.302L91.2709 119.24H65.9909L62.6226 128.084Z" fill="#231F20"/>
<path d="M62.6224 128.434C62.5653 128.434 62.509 128.421 62.4584 128.395C62.4078 128.368 62.3643 128.33 62.3319 128.283C62.2994 128.236 62.279 128.182 62.2722 128.126C62.2655 128.069 62.2727 128.012 62.2933 127.959L65.6616 119.121C65.6869 119.054 65.7318 118.996 65.7905 118.955C65.8492 118.914 65.919 118.892 65.9907 118.891H91.2707C91.3427 118.891 91.4129 118.913 91.4718 118.954C91.5307 118.995 91.5754 119.054 91.5998 119.121L92.7693 122.177C92.7902 122.223 92.801 122.273 92.801 122.323C92.801 122.374 92.7902 122.424 92.7693 122.47C92.743 122.515 92.7075 122.553 92.6653 122.584C92.6231 122.614 92.575 122.635 92.5242 122.645L62.7064 128.427L62.6224 128.434ZM66.2358 119.59L63.1686 127.623L91.964 122.03L91.0326 119.583L66.2358 119.59Z" fill="#231F20"/>
<path d="M131.95 6.5452V97.2731H25.9211V0.539551H125.935C127.53 0.539551 129.06 1.17229 130.188 2.29856C131.316 3.42484 131.95 4.9524 131.95 6.5452Z" fill="white"/>
<path d="M131.95 97.6227H25.9209C25.8286 97.6209 25.7406 97.5835 25.6753 97.5183C25.6101 97.4532 25.5726 97.3653 25.5708 97.2731V0.539548C25.5708 0.446836 25.6077 0.357921 25.6734 0.292363C25.739 0.226806 25.8281 0.189976 25.9209 0.189976H125.935C126.771 0.187206 127.6 0.349695 128.374 0.668094C129.147 0.986492 129.85 1.45451 130.442 2.0452C131.033 2.63589 131.502 3.33758 131.821 4.10988C132.14 4.88219 132.303 5.70984 132.3 6.5452V97.2731C132.3 97.3658 132.263 97.4548 132.197 97.5203C132.132 97.5859 132.043 97.6227 131.95 97.6227ZM26.2711 96.9236H131.6V6.5452C131.599 5.80368 131.452 5.06961 131.166 4.38497C130.881 3.70034 130.463 3.07856 129.937 2.5552C129.411 2.03185 128.787 1.61717 128.1 1.33489C127.413 1.05261 126.677 0.908256 125.935 0.910094H26.2711V96.9236Z" fill="#231F20"/>
<path d="M77.3702 32.0568H32.1954C32.1025 32.0568 32.0134 32.02 31.9478 31.9545C31.8821 31.8889 31.8452 31.8 31.8452 31.7073V15.8996C31.8452 15.8069 31.8821 15.718 31.9478 15.6524C32.0134 15.5869 32.1025 15.55 32.1954 15.55C32.2882 15.55 32.3773 15.5869 32.4429 15.6524C32.5086 15.718 32.5455 15.8069 32.5455 15.8996V31.3577H77.3632C77.4561 31.3577 77.5452 31.3945 77.6108 31.4601C77.6765 31.5256 77.7134 31.6146 77.7134 31.7073C77.7134 31.7988 77.6775 31.8866 77.6133 31.952C77.5492 32.0174 77.4619 32.055 77.3702 32.0568Z" fill="#D1D3D4"/>
<path d="M68.5746 70.1253H32.6014C32.5085 70.1253 32.4194 70.0885 32.3538 70.0229C32.2881 69.9574 32.2512 69.8685 32.2512 69.7758V36.8391C32.2512 36.7464 32.2881 36.6574 32.3538 36.5919C32.4194 36.5263 32.5085 36.4895 32.6014 36.4895H68.5746C68.6675 36.4895 68.7565 36.5263 68.8222 36.5919C68.8878 36.6574 68.9247 36.7464 68.9247 36.8391V69.8037C68.9177 69.8915 68.8777 69.9734 68.8128 70.033C68.7479 70.0927 68.6628 70.1256 68.5746 70.1253ZM32.9515 69.4262H68.2245V37.1886H32.9515V69.4262Z" fill="#D1D3D4"/>
<path d="M124.856 92.3093H34.7098C34.6169 92.3093 34.5278 92.2725 34.4622 92.2069C34.3965 92.1413 34.3596 92.0524 34.3596 91.9597V75.9983C34.3596 75.9055 34.3965 75.8166 34.4622 75.7511C34.5278 75.6855 34.6169 75.6487 34.7098 75.6487H124.856C124.949 75.6505 125.037 75.6879 125.102 75.7531C125.167 75.8182 125.205 75.9061 125.207 75.9983V91.9597C125.207 92.0524 125.17 92.1413 125.104 92.2069C125.038 92.2725 124.949 92.3093 124.856 92.3093ZM35.0599 91.6101H124.485V76.3478H35.0599V91.6101Z" fill="#D1D3D4"/>
<path d="M124.856 82.0107H34.7098C34.6169 82.0107 34.5278 81.9738 34.4622 81.9083C34.3965 81.8427 34.3596 81.7538 34.3596 81.6611C34.3596 81.5684 34.3965 81.4795 34.4622 81.4139C34.5278 81.3484 34.6169 81.3115 34.7098 81.3115H124.856C124.949 81.3133 125.037 81.3507 125.102 81.4159C125.167 81.4811 125.205 81.5689 125.207 81.6611C125.207 81.7538 125.17 81.8427 125.104 81.9083C125.038 81.9738 124.949 82.0107 124.856 82.0107Z" fill="#D1D3D4"/>
<path d="M34.8494 73.9358C36.2074 73.3911 37.6457 73.0723 39.1071 72.992C41.516 72.8661 42.4824 71.37 42.3914 70.3073C42.3003 69.2446 40.0454 68.3706 38.5118 68.6293C36.9782 68.888 33.4138 71.2931 33.4138 71.2931L34.8494 73.9358Z" fill="white"/>
<path d="M48.4628 47.1865C48.3699 47.206 48.2731 47.1878 48.1937 47.136C48.1142 47.0842 48.0586 47.003 48.0391 46.9103C48.0196 46.8176 48.0378 46.721 48.0897 46.6416C48.1416 46.5623 48.2229 46.5068 48.3157 46.4873L58.6588 41.6982C58.7001 41.6783 58.745 41.6668 58.7907 41.6645C58.8365 41.6622 58.8823 41.669 58.9254 41.6847C58.9685 41.7003 59.008 41.7244 59.0416 41.7556C59.0752 41.7867 59.1022 41.8243 59.121 41.866C59.1411 41.9077 59.1527 41.953 59.1551 41.9992C59.1575 42.0454 59.1507 42.0917 59.135 42.1353C59.1194 42.1788 59.0953 42.2189 59.064 42.2531C59.0327 42.2873 58.995 42.3149 58.9529 42.3344L48.5959 47.1515C48.554 47.1712 48.5089 47.1831 48.4628 47.1865Z" fill="#D1D3D4"/>
<path d="M56.8872 48.228C56.7943 48.2484 56.6972 48.2311 56.6171 48.18C56.5369 48.1289 56.4805 48.0481 56.46 47.9554C56.4396 47.8626 56.4569 47.7656 56.5081 47.6856C56.5593 47.6057 56.6403 47.5493 56.7331 47.5289L65.6617 43.2921C65.7438 43.2653 65.8329 43.2691 65.9125 43.3029C65.992 43.3367 66.0565 43.3981 66.0942 43.4758C66.1318 43.5534 66.1399 43.6421 66.117 43.7253C66.0942 43.8085 66.0419 43.8806 65.9698 43.9283L57.0413 48.1931C56.9942 48.2189 56.9408 48.231 56.8872 48.228Z" fill="#D1D3D4"/>
<path d="M47.6713 57.4009C47.606 57.3994 47.5423 57.3805 47.4869 57.3461C47.4314 57.3116 47.3863 57.2629 47.3562 57.2051C47.3359 57.1638 47.3239 57.1189 47.321 57.073C47.3181 57.0271 47.3243 56.981 47.3393 56.9375C47.3543 56.894 47.3777 56.8538 47.4082 56.8194C47.4387 56.7849 47.4758 56.7568 47.5172 56.7367L64.0157 48.5916C64.0572 48.5646 64.1039 48.5466 64.1528 48.5389C64.2017 48.5312 64.2517 48.534 64.2995 48.547C64.3473 48.56 64.3917 48.583 64.4299 48.6144C64.4682 48.6458 64.4993 48.685 64.5212 48.7293C64.5432 48.7736 64.5554 48.8221 64.5572 48.8715C64.5591 48.9209 64.5503 48.9701 64.5317 49.0159C64.513 49.0617 64.4849 49.103 64.4491 49.1372C64.4132 49.1713 64.3706 49.1974 64.3239 49.2139L47.8254 57.3659C47.777 57.3883 47.7245 57.4002 47.6713 57.4009Z" fill="#D1D3D4"/>
<path d="M36.95 69.4263C36.95 69.4263 39.3589 67.4128 40.1432 67.4547C40.9275 67.4967 43.8827 67.8463 43.0424 68.4825C42.202 69.1187 40.0662 68.8181 40.0662 68.8181C40.0662 68.8181 40.3113 69.0768 39.3099 69.7829" fill="white"/>
<path d="M125.934 0.539551C124.339 0.539551 122.809 1.17229 121.681 2.29856C120.552 3.42484 119.919 4.9524 119.919 6.5452V12.5439H17.3911V6.5452C17.3911 4.9524 18.0249 3.42484 19.153 2.29856C20.2811 1.17229 21.8111 0.539551 23.4065 0.539551H125.934Z" fill="#3343EA"/>
<path d="M119.919 12.8934H17.3916C17.2993 12.8916 17.2113 12.8542 17.146 12.789C17.0808 12.7239 17.0433 12.636 17.0415 12.5438V6.54518C17.0489 4.86388 17.7226 3.25386 18.9154 2.06695C20.1081 0.880048 21.723 0.212769 23.407 0.210938H125.935C126.027 0.210938 126.116 0.247767 126.182 0.313325C126.248 0.378882 126.285 0.467797 126.285 0.56051C126.285 0.653222 126.248 0.742137 126.182 0.807695C126.116 0.873252 126.027 0.910082 125.935 0.910082C124.439 0.915595 123.006 1.51084 121.947 2.56624C120.889 3.62163 120.291 5.05172 120.283 6.54518V12.5438C120.283 12.5909 120.274 12.6376 120.255 12.6809C120.237 12.7243 120.21 12.7635 120.176 12.7961C120.142 12.8288 120.102 12.8542 120.057 12.8709C120.013 12.8876 119.966 12.8953 119.919 12.8934ZM17.7418 12.1943H119.583V6.54518C119.587 5.38054 119.912 4.2394 120.52 3.24587C121.129 2.25234 121.999 1.44446 123.035 0.910082H23.407C21.9051 0.911932 20.4652 1.50843 19.4031 2.56875C18.3411 3.62907 17.7436 5.06664 17.7418 6.56616V12.1943Z" fill="#231F20"/>
<path d="M86.4528 37.804H78.6797V69.8038H86.4528V37.804Z" fill="#3343EA"/>
<path d="M86.4531 70.1254H78.68C78.5871 70.1254 78.4981 70.0885 78.4324 70.023C78.3667 69.9574 78.3298 69.8685 78.3298 69.7758V37.8039C78.3316 37.7118 78.3691 37.6239 78.4344 37.5587C78.4996 37.4935 78.5877 37.4561 78.68 37.4543H86.4531C86.5459 37.4543 86.635 37.4912 86.7006 37.5567C86.7663 37.6223 86.8032 37.7112 86.8032 37.8039V69.8037C86.7961 69.8915 86.7562 69.9734 86.6912 70.033C86.6263 70.0927 86.5413 70.1256 86.4531 70.1254ZM79.0301 69.4262H86.1029V38.1535H79.0301V69.4262Z" fill="#231F20"/>
<path d="M86.4528 37.804H78.6797V49.5426H86.4528V37.804Z" fill="white"/>
<path d="M86.4531 49.8921H78.68C78.5871 49.8921 78.4981 49.8553 78.4324 49.7897C78.3667 49.7242 78.3298 49.6353 78.3298 49.5426V37.8039C78.3316 37.7118 78.3691 37.6239 78.4344 37.5587C78.4996 37.4935 78.5877 37.4561 78.68 37.4543H86.4531C86.5459 37.4543 86.635 37.4912 86.7006 37.5567C86.7663 37.6223 86.8032 37.7112 86.8032 37.8039V49.5426C86.8032 49.6353 86.7663 49.7242 86.7006 49.7897C86.635 49.8553 86.5459 49.8921 86.4531 49.8921ZM79.0301 49.193H86.1029V38.1535H79.0301V49.193Z" fill="#231F20"/>
<path d="M98.0914 37.804H90.3184V69.8038H98.0914V37.804Z" fill="#3343EA"/>
<path d="M98.0845 70.1254H90.3184C90.2255 70.1254 90.1365 70.0885 90.0708 70.023C90.0051 69.9574 89.9683 69.8685 89.9683 69.7758V37.8039C89.9683 37.7112 90.0051 37.6223 90.0708 37.5567C90.1365 37.4912 90.2255 37.4543 90.3184 37.4543H98.0845C98.1773 37.4543 98.2664 37.4912 98.3321 37.5567C98.3977 37.6223 98.4346 37.7112 98.4346 37.8039V69.8037C98.4276 69.8915 98.3876 69.9734 98.3227 70.033C98.2578 70.0927 98.1727 70.1256 98.0845 70.1254ZM90.6685 69.4262H97.7343V38.1535H90.6685V69.4262Z" fill="#231F20"/>
<path d="M98.0914 37.804H90.3184V53.8004H98.0914V37.804Z" fill="white"/>
<path d="M98.0845 54.1569H90.3184C90.2255 54.1569 90.1365 54.1201 90.0708 54.0545C90.0051 53.989 89.9683 53.9 89.9683 53.8073V37.8039C89.9683 37.7112 90.0051 37.6223 90.0708 37.5567C90.1365 37.4912 90.2255 37.4543 90.3184 37.4543H98.0845C98.1773 37.4543 98.2664 37.4912 98.3321 37.5567C98.3977 37.6223 98.4346 37.7112 98.4346 37.8039V53.8073C98.4346 53.9 98.3977 53.989 98.3321 54.0545C98.2664 54.1201 98.1773 54.1569 98.0845 54.1569ZM90.6685 53.4578H97.7343V38.1535H90.6685V53.4578Z" fill="#231F20"/>
<path d="M109.723 37.804H101.95V69.8038H109.723V37.804Z" fill="#3343EA"/>
<path d="M109.723 70.1254H101.95C101.857 70.1254 101.768 70.0885 101.703 70.023C101.637 69.9574 101.6 69.8685 101.6 69.7758V37.8039C101.6 37.7112 101.637 37.6223 101.703 37.5567C101.768 37.4912 101.857 37.4543 101.95 37.4543H109.723C109.816 37.4561 109.904 37.4935 109.969 37.5587C110.034 37.6239 110.072 37.7118 110.073 37.8039V69.8037C110.066 69.8915 110.026 69.9734 109.962 70.033C109.897 70.0927 109.812 70.1256 109.723 70.1254ZM102.3 69.4262H109.373V38.1535H102.3V69.4262Z" fill="#231F20"/>
<path d="M109.723 37.804H101.95V43.6768H109.723V37.804Z" fill="white"/>
<path d="M109.723 44.0263H101.95C101.857 44.0263 101.768 43.9895 101.703 43.9239C101.637 43.8584 101.6 43.7694 101.6 43.6767V37.8039C101.6 37.7112 101.637 37.6223 101.703 37.5567C101.768 37.4912 101.857 37.4543 101.95 37.4543H109.723C109.816 37.4561 109.904 37.4935 109.969 37.5587C110.034 37.6239 110.072 37.7118 110.073 37.8039V43.6767C110.072 43.7689 110.034 43.8568 109.969 43.9219C109.904 43.9871 109.816 44.0245 109.723 44.0263ZM102.3 43.3272H109.373V38.1535H102.3V43.3272Z" fill="#231F20"/>
<path d="M121.355 37.804H113.582V69.8038H121.355V37.804Z" fill="#3343EA"/>
<path d="M121.355 70.1254H113.582C113.489 70.1254 113.4 70.0885 113.334 70.023C113.269 69.9574 113.232 69.8685 113.232 69.7758V37.8039C113.232 37.7112 113.269 37.6223 113.334 37.5567C113.4 37.4912 113.489 37.4543 113.582 37.4543H121.355C121.447 37.4561 121.535 37.4935 121.601 37.5587C121.666 37.6239 121.703 37.7118 121.705 37.8039V69.8037C121.698 69.8915 121.658 69.9734 121.593 70.033C121.528 70.0927 121.443 70.1256 121.355 70.1254ZM113.932 69.4262H120.984V38.1535H113.911L113.932 69.4262Z" fill="#231F20"/>
<path d="M121.355 37.804H113.582V50.025H121.355V37.804Z" fill="white"/>
<path d="M121.355 50.3745H113.582C113.489 50.3745 113.4 50.3377 113.334 50.2721C113.269 50.2066 113.232 50.1177 113.232 50.025V37.8039C113.232 37.7112 113.269 37.6223 113.334 37.5567C113.4 37.4912 113.489 37.4543 113.582 37.4543H121.355C121.447 37.4561 121.535 37.4935 121.601 37.5587C121.666 37.6239 121.703 37.7118 121.705 37.8039V50.025C121.705 50.1177 121.668 50.2066 121.602 50.2721C121.537 50.3377 121.448 50.3745 121.355 50.3745ZM113.932 49.6754H120.984V38.1535H113.911L113.932 49.6754Z" fill="#231F20"/>
<path d="M60.6478 92.3093C60.5549 92.3093 60.4658 92.2725 60.4002 92.2069C60.3345 92.1413 60.2976 92.0524 60.2976 91.9597V75.9983C60.2976 75.9055 60.3345 75.8166 60.4002 75.7511C60.4658 75.6855 60.5549 75.6487 60.6478 75.6487C60.7401 75.6505 60.8281 75.6879 60.8934 75.7531C60.9586 75.8182 60.9961 75.9061 60.9979 75.9983V91.9597C60.9979 92.0524 60.961 92.1413 60.8953 92.2069C60.8297 92.2725 60.7406 92.3093 60.6478 92.3093Z" fill="#D1D3D4"/>
<path d="M102.776 92.3093C102.683 92.3093 102.594 92.2725 102.529 92.2069C102.463 92.1413 102.426 92.0524 102.426 91.9597V75.9983C102.428 75.9061 102.465 75.8182 102.531 75.7531C102.596 75.6879 102.684 75.6505 102.776 75.6487C102.869 75.6487 102.958 75.6855 103.024 75.7511C103.089 75.8166 103.126 75.9055 103.126 75.9983V91.9597C103.126 92.0524 103.089 92.1413 103.024 92.2069C102.958 92.2725 102.869 92.3093 102.776 92.3093Z" fill="#D1D3D4"/>
<path d="M126.628 70.1254H71.8799C71.7871 70.1254 71.698 70.0886 71.6323 70.023C71.5667 69.9575 71.5298 69.8686 71.5298 69.7758C71.5298 69.6831 71.5667 69.5942 71.6323 69.5287C71.698 69.4631 71.7871 69.4263 71.8799 69.4263H126.628C126.72 69.4263 126.809 69.4631 126.875 69.5287C126.941 69.5942 126.978 69.6831 126.978 69.7758C126.978 69.8686 126.941 69.9575 126.875 70.023C126.809 70.0886 126.72 70.1254 126.628 70.1254Z" fill="#231F20"/>
<path d="M35.1365 29.4C35.0756 29.4003 35.0156 29.3859 34.9615 29.358C34.8852 29.3066 34.8312 29.2283 34.8104 29.1388C34.7897 29.0493 34.8036 28.9553 34.8494 28.8756C36.2613 26.4143 38.1688 24.2718 40.4516 22.5833C42.2303 21.2829 43.7779 20.7935 45.1785 21.0941C46.3127 21.4587 47.3363 22.1032 48.1547 22.9678C48.4138 23.1916 48.6729 23.4223 48.932 23.667C49.708 24.2869 50.5687 24.793 51.488 25.1701C51.8668 25.348 52.2808 25.4388 52.6995 25.4358C53.1893 25.3574 53.6449 25.136 54.009 24.7996C54.6006 24.3022 55.1597 23.7674 55.6826 23.1985C56.5426 22.1676 57.5965 21.3149 58.7849 20.6886C59.6728 20.3031 60.6466 20.1571 61.6088 20.265C62.571 20.373 63.4879 20.7312 64.268 21.3039C64.6441 21.6038 64.9997 21.9285 65.3325 22.2757C65.608 22.5605 65.8978 22.8312 66.2008 23.0867C68.0145 24.5479 70.8717 24.7786 73.4977 23.688C75.9697 22.6602 78.0075 20.6746 79.7302 18.8988C79.7627 18.8661 79.8014 18.84 79.8441 18.8223C79.8868 18.8045 79.9325 18.7954 79.9788 18.7954C80.025 18.7954 80.0707 18.8045 80.1134 18.8223C80.1561 18.84 80.1948 18.8661 80.2274 18.8988C80.292 18.9653 80.3281 19.0544 80.3281 19.147C80.3281 19.2397 80.292 19.3287 80.2274 19.3952C78.4557 21.22 76.3548 23.2545 73.7568 24.3382C70.9067 25.5337 67.7624 25.254 65.7526 23.639C65.4235 23.3663 65.1224 23.0657 64.8283 22.7721C64.5176 22.4493 64.1854 22.148 63.8339 21.8702C63.156 21.3709 62.3586 21.0583 61.5216 20.9638C60.6846 20.8694 59.8374 20.9963 59.065 21.3318C57.9607 21.9221 56.9811 22.7198 56.1798 23.681C55.6423 24.2613 55.0668 24.8055 54.4572 25.31C53.9868 25.7324 53.4023 26.0071 52.7765 26.1C52.2447 26.116 51.7167 26.0058 51.2359 25.7784C50.2547 25.3798 49.337 24.8405 48.5118 24.1774C48.2387 23.9606 47.9726 23.7299 47.7065 23.4782C46.9591 22.7017 46.0303 22.1228 45.0034 21.7933C43.8059 21.5346 42.4474 21.989 40.8018 23.1916C38.5956 24.8094 36.7519 26.8692 35.3886 29.2392C35.3611 29.2829 35.3242 29.32 35.2806 29.3478C35.237 29.3756 35.1878 29.3934 35.1365 29.4Z" fill="#D1D3D4"/>
<path d="M120.122 21.6398H91.3338C91.2415 21.638 91.1535 21.6006 91.0882 21.5354C91.0229 21.4703 90.9854 21.3824 90.9836 21.2902C90.9836 21.1975 91.0205 21.1086 91.0862 21.0431C91.1519 20.9775 91.2409 20.9407 91.3338 20.9407H120.122C120.215 20.9407 120.304 20.9775 120.37 21.0431C120.435 21.1086 120.472 21.1975 120.472 21.2902C120.472 21.383 120.435 21.4719 120.37 21.5374C120.304 21.603 120.215 21.6398 120.122 21.6398Z" fill="#D1D3D4"/>
<path d="M120.122 25.5199H108.378C108.286 25.5199 108.197 25.4831 108.131 25.4176C108.065 25.352 108.028 25.2631 108.028 25.1704C108.028 25.0777 108.065 24.9887 108.131 24.9232C108.197 24.8576 108.286 24.8208 108.378 24.8208H120.108C120.201 24.8208 120.29 24.8576 120.356 24.9232C120.421 24.9887 120.458 25.0777 120.458 25.1704C120.458 25.2607 120.423 25.3476 120.361 25.4127C120.298 25.4779 120.213 25.5163 120.122 25.5199Z" fill="#D1D3D4"/>
<path d="M103.477 25.5199H91.3338C91.2409 25.5199 91.1519 25.4831 91.0862 25.4176C91.0205 25.352 90.9836 25.2631 90.9836 25.1704C90.9854 25.0782 91.0229 24.9903 91.0882 24.9252C91.1535 24.86 91.2415 24.8226 91.3338 24.8208H103.477C103.569 24.8226 103.657 24.86 103.722 24.9252C103.787 24.9903 103.825 25.0782 103.827 25.1704C103.827 25.2631 103.79 25.352 103.724 25.4176C103.659 25.4831 103.569 25.5199 103.477 25.5199Z" fill="#D1D3D4"/>
<path d="M120.122 29.4072H94.9825C94.8896 29.4072 94.8005 29.3703 94.7349 29.3048C94.6692 29.2392 94.6323 29.1503 94.6323 29.0576C94.6323 28.9649 94.6692 28.876 94.7349 28.8104C94.8005 28.7448 94.8896 28.708 94.9825 28.708H120.122C120.215 28.708 120.304 28.7448 120.37 28.8104C120.436 28.876 120.473 28.9649 120.473 29.0576C120.473 29.1503 120.436 29.2392 120.37 29.3048C120.304 29.3703 120.215 29.4072 120.122 29.4072Z" fill="#D1D3D4"/>
</svg>
