<svg width="209" height="158" viewBox="0 0 209 158" fill="none" xmlns="http://www.w3.org/2000/svg">
<path d="M68.9976 17.428H122.732V50.8731C122.732 51.5541 122.462 52.2071 121.982 52.6886C121.502 53.1701 120.851 53.4406 120.172 53.4406H71.5573C70.8784 53.4406 70.2273 53.1701 69.7473 52.6886C69.2673 52.2071 68.9976 51.5541 68.9976 50.8731V17.428Z" fill="white"/>
<path d="M120.172 53.7447H71.557C70.7971 53.7429 70.0689 53.4388 69.5322 52.8992C68.9955 52.3596 68.6941 51.6286 68.6941 50.8664V17.428C68.6941 17.3467 68.7258 17.2687 68.7825 17.2106C68.8391 17.1525 68.9162 17.119 68.9972 17.1172H122.732C122.814 17.1172 122.893 17.1499 122.951 17.2082C123.009 17.2665 123.041 17.3456 123.041 17.428V50.8664C123.041 51.6297 122.739 52.3618 122.201 52.9016C121.663 53.4414 120.933 53.7447 120.172 53.7447ZM69.3071 17.7388V50.8461C69.3071 51.4452 69.5439 52.0199 69.9657 52.4442C70.3874 52.8685 70.9596 53.1078 71.557 53.1095H120.172C120.77 53.1095 121.344 52.8711 121.767 52.4466C122.191 52.0221 122.428 51.4464 122.428 50.8461V17.7388H69.3071Z" fill="#231F20"/>
<path d="M71.5573 12.6443H120.172C120.851 12.6443 121.502 12.9148 121.982 13.3963C122.462 13.8778 122.732 14.5308 122.732 15.2118V17.428H68.9976V15.2118C68.9976 14.5308 69.2673 13.8778 69.7473 13.3963C70.2273 12.9148 70.8784 12.6443 71.5573 12.6443Z" fill="white"/>
<path d="M122.732 17.7386H68.9972C68.9162 17.7368 68.8391 17.7033 68.7825 17.6452C68.7258 17.5871 68.6941 17.5091 68.6941 17.4278V15.2116C68.6959 14.4506 68.9981 13.7213 69.5346 13.1831C70.0711 12.645 70.7982 12.3419 71.557 12.3401H120.172C120.929 12.3437 121.655 12.6475 122.19 13.1855C122.725 13.7234 123.026 14.4518 123.028 15.2116V17.4278C123.028 17.5079 122.997 17.585 122.942 17.6429C122.887 17.7008 122.811 17.7351 122.732 17.7386ZM69.3071 17.117H122.428V15.2116C122.427 14.6125 122.188 14.0385 121.765 13.6155C121.342 13.1925 120.769 12.9549 120.172 12.9549H71.557C70.9608 12.9567 70.3896 13.1951 69.968 13.6179C69.5465 14.0407 69.3089 14.6137 69.3071 15.2116V17.117Z" fill="#231F20"/>
<path d="M82.227 30.813C84.1393 30.813 85.6894 29.2581 85.6894 27.3401C85.6894 25.4221 84.1393 23.8672 82.227 23.8672C80.3148 23.8672 78.7646 25.4221 78.7646 27.3401C78.7646 29.2581 80.3148 30.813 82.227 30.813Z" fill="#3343EA"/>
<path d="M75.9353 37.8396C75.9888 36.2008 76.6754 34.647 77.8501 33.5066C79.0248 32.3663 80.5955 31.7288 82.2302 31.7288C83.865 31.7288 85.4357 32.3663 86.6104 33.5066C87.7851 34.647 88.4717 36.2008 88.5252 37.8396H75.9353Z" fill="#3343EA"/>
<path d="M109.501 30.813C111.414 30.813 112.964 29.2581 112.964 27.3401C112.964 25.4221 111.414 23.8672 109.501 23.8672C107.589 23.8672 106.039 25.4221 106.039 27.3401C106.039 29.2581 107.589 30.813 109.501 30.813Z" fill="#3343EA"/>
<path d="M103.21 37.8396C103.264 36.2008 103.951 34.647 105.125 33.5066C106.3 32.3663 107.871 31.7288 109.505 31.7288C111.14 31.7288 112.711 32.3663 113.886 33.5066C115.06 34.647 115.747 36.2008 115.8 37.8396H103.21Z" fill="#3343EA"/>
<path d="M101.775 27.6506H93.6919C93.6098 27.6506 93.5309 27.6178 93.4728 27.5596C93.4147 27.5013 93.3821 27.4222 93.3821 27.3398C93.3821 27.2574 93.4147 27.1783 93.4728 27.12C93.5309 27.0617 93.6098 27.029 93.6919 27.029H101.061L99.4513 25.3331C99.4228 25.3048 99.4002 25.2711 99.3847 25.234C99.3693 25.1969 99.3613 25.1571 99.3613 25.1169C99.3613 25.0767 99.3693 25.0368 99.3847 24.9997C99.4002 24.9626 99.4228 24.9289 99.4513 24.9007C99.5103 24.8441 99.5887 24.8125 99.6703 24.8125C99.7518 24.8125 99.8303 24.8441 99.8892 24.9007L101.991 27.1236C102.033 27.1661 102.062 27.2206 102.072 27.2797C102.083 27.3388 102.076 27.3998 102.051 27.4546C102.029 27.5106 101.991 27.559 101.942 27.5938C101.893 27.6285 101.835 27.6483 101.775 27.6506Z" fill="#231F20"/>
<path d="M99.7545 29.6303C99.6709 29.6295 99.591 29.5955 99.5322 29.5357C99.4742 29.4775 99.4417 29.3985 99.4417 29.3162C99.4417 29.2338 99.4742 29.1548 99.5322 29.0966L101.553 27.1236C101.613 27.0699 101.691 27.0414 101.771 27.0441C101.851 27.0469 101.927 27.0807 101.983 27.1384C102.039 27.1961 102.07 27.2733 102.07 27.3537C102.07 27.4341 102.04 27.5115 101.984 27.5696L99.9633 29.5425C99.9073 29.5971 99.8327 29.6285 99.7545 29.6303Z" fill="#231F20"/>
<path d="M97.9424 30.2523H89.859C89.7992 30.2533 89.7404 30.2365 89.69 30.204C89.6397 30.1716 89.6 30.1249 89.5761 30.0699C89.552 30.0138 89.5449 29.9519 89.5557 29.8918C89.5665 29.8317 89.5946 29.7761 89.6367 29.732L91.7384 27.5159C91.7659 27.4849 91.7994 27.4597 91.8368 27.4419C91.8741 27.4241 91.9147 27.414 91.9561 27.4122C91.9974 27.4103 92.0387 27.4168 92.0775 27.4313C92.1163 27.4457 92.1518 27.4678 92.182 27.4962C92.2121 27.5247 92.2363 27.5589 92.253 27.5968C92.2698 27.6348 92.2788 27.6757 92.2795 27.7172C92.2802 27.7588 92.2727 27.8 92.2572 27.8385C92.2418 27.877 92.2189 27.9121 92.1897 27.9415L90.573 29.6307H97.9424C98.024 29.6324 98.1018 29.6657 98.1596 29.7236C98.2173 29.7815 98.2505 29.8596 98.2523 29.9415C98.2523 30.0239 98.2196 30.103 98.1615 30.1613C98.1034 30.2195 98.0246 30.2523 97.9424 30.2523Z" fill="#231F20"/>
<path d="M91.8732 32.2249C91.8343 32.2255 91.7956 32.218 91.7597 32.2028C91.7237 32.1877 91.6913 32.1653 91.6644 32.1371L89.6436 30.1709C89.5871 30.1118 89.5557 30.0331 89.5557 29.9513C89.5557 29.8695 89.5871 29.7908 89.6436 29.7317C89.7017 29.6735 89.7804 29.6409 89.8625 29.6409C89.9446 29.6409 90.0233 29.6735 90.0814 29.7317L92.1023 31.7046C92.1308 31.7329 92.1534 31.7666 92.1689 31.8037C92.1843 31.8408 92.1923 31.8806 92.1923 31.9209C92.1923 31.9611 92.1843 32.0009 92.1689 32.038C92.1534 32.0751 92.1308 32.1088 92.1023 32.1371C92.0718 32.1662 92.0359 32.189 91.9966 32.2041C91.9572 32.2192 91.9153 32.2263 91.8732 32.2249Z" fill="#231F20"/>
<path d="M111.886 41.9274H79.8424C79.7531 41.9274 79.6674 41.8918 79.6043 41.8284C79.5411 41.7651 79.5056 41.6791 79.5056 41.5895C79.5073 41.5005 79.5434 41.4156 79.6062 41.3526C79.669 41.2896 79.7536 41.2534 79.8424 41.2517H111.886C111.976 41.2517 112.061 41.2873 112.124 41.3507C112.188 41.414 112.223 41.4999 112.223 41.5895C112.223 41.6791 112.188 41.7651 112.124 41.8284C112.061 41.8918 111.976 41.9274 111.886 41.9274Z" fill="#D1D3D4"/>
<path d="M111.886 44.2111H79.8424C79.7531 44.2111 79.6674 44.1755 79.6043 44.1121C79.5411 44.0488 79.5056 43.9628 79.5056 43.8732C79.5073 43.7842 79.5434 43.6992 79.6062 43.6363C79.669 43.5733 79.7536 43.5371 79.8424 43.5354H111.886C111.976 43.5354 112.061 43.571 112.124 43.6343C112.188 43.6977 112.223 43.7836 112.223 43.8732C112.223 43.9628 112.188 44.0488 112.124 44.1121C112.061 44.1755 111.976 44.2111 111.886 44.2111Z" fill="#D1D3D4"/>
<path d="M108.592 46.5221H79.8424C79.7531 46.5221 79.6674 46.4865 79.6043 46.4231C79.5411 46.3598 79.5056 46.2739 79.5056 46.1843C79.5073 46.0952 79.5434 46.0103 79.6062 45.9473C79.669 45.8843 79.7536 45.8482 79.8424 45.8464H108.592C108.681 45.8482 108.766 45.8843 108.829 45.9473C108.891 46.0103 108.927 46.0952 108.929 46.1843C108.929 46.2739 108.894 46.3598 108.83 46.4231C108.767 46.4865 108.682 46.5221 108.592 46.5221Z" fill="#D1D3D4"/>
<path d="M72.7762 15.8603C73.23 15.8603 73.598 15.4912 73.598 15.036C73.598 14.5807 73.23 14.2117 72.7762 14.2117C72.3223 14.2117 71.9543 14.5807 71.9543 15.036C71.9543 15.4912 72.3223 15.8603 72.7762 15.8603Z" fill="#3343EA"/>
<path d="M75.6726 15.8603C76.1265 15.8603 76.4944 15.4912 76.4944 15.036C76.4944 14.5807 76.1265 14.2117 75.6726 14.2117C75.2188 14.2117 74.8508 14.5807 74.8508 15.036C74.8508 15.4912 75.2188 15.8603 75.6726 15.8603Z" fill="#D1D3D4"/>
<path d="M78.5691 15.8603C79.023 15.8603 79.3909 15.4912 79.3909 15.036C79.3909 14.5807 79.023 14.2117 78.5691 14.2117C78.1153 14.2117 77.7473 14.5807 77.7473 15.036C77.7473 15.4912 78.1153 15.8603 78.5691 15.8603Z" fill="#D1D3D4"/>
<path d="M131.051 14.3403H200.393V96.4194C200.393 97.3154 200.038 98.1747 199.406 98.8082C198.775 99.4418 197.918 99.7977 197.025 99.7977H134.412C133.519 99.7977 132.662 99.4418 132.031 98.8082C131.399 98.1747 131.044 97.3154 131.044 96.4194V14.3403H131.051Z" fill="white"/>
<path d="M197.025 100.136H134.378C133.397 100.134 132.456 99.7416 131.763 99.0449C131.07 98.3482 130.68 97.404 130.68 96.4196V14.3405C130.68 14.2509 130.716 14.165 130.779 14.1016C130.842 14.0383 130.928 14.0027 131.017 14.0027H200.393C200.482 14.0027 200.568 14.0383 200.631 14.1016C200.694 14.165 200.729 14.2509 200.729 14.3405V96.4196C200.728 97.4046 200.337 98.3488 199.642 99.0453C198.948 99.7418 198.007 100.134 197.025 100.136ZM131.387 14.6783V96.4331C131.387 97.2383 131.706 98.0106 132.273 98.5806C132.84 99.1506 133.609 99.4718 134.412 99.4736H197.058C197.862 99.4718 198.632 99.1509 199.2 98.5811C199.768 98.0112 200.088 97.2389 200.09 96.4331V14.6783H131.387Z" fill="#231F20"/>
<path d="M186.253 93.0343H145.163C144.299 93.0273 143.473 92.6809 142.86 92.0696C142.248 91.4582 141.9 90.6305 141.889 89.7641V87.8047C141.891 86.929 142.239 86.0896 142.856 85.4704C143.473 84.8512 144.31 84.5025 145.183 84.5007H186.274C187.147 84.5007 187.985 84.8488 188.603 85.4684C189.221 86.0881 189.568 86.9284 189.568 87.8047V89.7641C189.559 90.638 189.205 91.4728 188.584 92.0857C187.963 92.6986 187.125 93.0397 186.253 93.0343ZM145.163 85.1764C144.471 85.1817 143.81 85.461 143.323 85.9533C142.836 86.4457 142.563 87.1111 142.563 87.8047V89.7641C142.565 90.46 142.841 91.1268 143.333 91.6183C143.824 92.1097 144.489 92.3857 145.183 92.3857H186.274C186.968 92.3857 187.633 92.1097 188.124 91.6183C188.615 91.1268 188.892 90.46 188.894 89.7641V87.8047C188.894 87.1076 188.618 86.4391 188.127 85.9462C187.635 85.4533 186.969 85.1764 186.274 85.1764H145.163Z" fill="#231F20"/>
<path d="M146.463 36.833H140.966V76.5685H146.463V36.833Z" fill="#3343EA"/>
<path d="M156.608 46.1367H151.111V76.5617H156.608V46.1367Z" fill="#3343EA"/>
<path d="M166.745 40.0762H161.249V76.5685H166.745V40.0762Z" fill="#3343EA"/>
<path d="M176.89 51.0691H171.394V76.5617H176.89V51.0691Z" fill="#3343EA"/>
<path d="M187.035 40.0762H181.538V76.5685H187.035V40.0762Z" fill="#3343EA"/>
<path d="M186.907 21.5226H177.591C177.501 21.5226 177.416 21.487 177.353 21.4236C177.289 21.3603 177.254 21.2744 177.254 21.1848C177.254 21.0952 177.289 21.0092 177.353 20.9459C177.416 20.8825 177.501 20.8469 177.591 20.8469H186.893C186.982 20.8487 187.067 20.8848 187.13 20.9478C187.192 21.0108 187.228 21.0957 187.23 21.1848C187.23 21.2721 187.197 21.356 187.136 21.419C187.076 21.482 186.994 21.5191 186.907 21.5226Z" fill="#231F20"/>
<path d="M183.653 25.0021H177.591C177.501 25.0021 177.416 24.9665 177.353 24.9031C177.289 24.8398 177.254 24.7538 177.254 24.6642C177.254 24.5746 177.289 24.4887 177.353 24.4254C177.416 24.362 177.501 24.3264 177.591 24.3264H183.653C183.743 24.3264 183.828 24.362 183.891 24.4254C183.955 24.4887 183.99 24.5746 183.99 24.6642C183.99 24.7538 183.955 24.8398 183.891 24.9031C183.828 24.9665 183.743 25.0021 183.653 25.0021Z" fill="#231F20"/>
<path d="M174.822 40.4883C171.885 40.4883 169.325 37.2046 167.264 34.556C165.917 32.8399 164.657 31.1778 163.815 31.1778C162.859 31.1778 161.538 31.9683 160.144 32.7791C158.244 33.8804 156.102 35.1304 154.081 35.0155C150.302 34.8128 143.202 26.4481 142.906 26.09C142.878 26.0583 142.857 26.0213 142.844 25.9812C142.83 25.9411 142.825 25.8988 142.828 25.8566C142.831 25.8144 142.843 25.7733 142.862 25.7357C142.881 25.698 142.908 25.6646 142.94 25.6373C143.001 25.5779 143.083 25.5447 143.169 25.5447C143.254 25.5447 143.336 25.5779 143.398 25.6373C143.465 25.7252 150.612 34.1507 154.115 34.3398C155.961 34.4479 158.022 33.2453 159.841 32.1845C161.309 31.3332 162.697 30.5291 163.815 30.4953C164.933 30.4616 166.233 32.0629 167.81 34.0966C169.831 36.6844 172.323 39.9005 175.024 39.7721C177.362 39.6573 178.48 37.6168 179.665 35.4547C180.851 33.2926 181.976 31.225 184.34 30.7724C184.42 30.766 184.5 30.7896 184.563 30.8387C184.627 30.8878 184.67 30.9588 184.684 31.0379C184.698 31.1171 184.683 31.1987 184.64 31.267C184.598 31.3353 184.532 31.3854 184.455 31.4075C182.393 31.7994 181.343 33.725 180.224 35.7655C179.012 37.9884 177.752 40.2856 175.058 40.4208L174.822 40.4883Z" fill="#D1D3D4"/>
<path d="M191.737 76.8861H136.5C136.458 76.8861 136.416 76.8777 136.377 76.8613C136.338 76.8449 136.303 76.8209 136.274 76.7907C136.244 76.7605 136.221 76.7247 136.206 76.6854C136.19 76.6461 136.183 76.604 136.183 76.5618C136.187 76.4793 136.221 76.4012 136.28 76.3434C136.339 76.2857 136.418 76.2526 136.5 76.251H191.737C191.822 76.251 191.905 76.2851 191.965 76.346C192.026 76.4068 192.06 76.4893 192.06 76.5753C192.059 76.617 192.05 76.6581 192.033 76.6963C192.016 76.7345 191.992 76.769 191.962 76.7979C191.932 76.8267 191.897 76.8494 191.858 76.8645C191.819 76.8797 191.778 76.887 191.737 76.8861Z" fill="#D1D3D4"/>
<path d="M143.237 27.1239C142.991 27.1239 142.752 27.051 142.548 26.9144C142.344 26.7778 142.185 26.5836 142.091 26.3564C141.998 26.1293 141.973 25.8793 142.021 25.6381C142.069 25.397 142.187 25.1754 142.36 25.0016C142.533 24.8277 142.754 24.7093 142.995 24.6613C143.235 24.6134 143.484 24.638 143.711 24.7321C143.937 24.8262 144.131 24.9855 144.267 25.19C144.403 25.3944 144.476 25.6348 144.476 25.8807C144.476 26.2104 144.345 26.5266 144.113 26.7597C143.881 26.9929 143.565 27.1239 143.237 27.1239ZM143.237 25.2861C143.118 25.2861 143.001 25.3215 142.903 25.3879C142.804 25.4543 142.727 25.5486 142.682 25.6589C142.637 25.7692 142.625 25.8904 142.649 26.0072C142.673 26.1241 142.731 26.2312 142.815 26.315C142.9 26.3988 143.007 26.4556 143.124 26.478C143.24 26.5004 143.361 26.4876 143.471 26.441C143.58 26.3945 143.673 26.3163 143.738 26.2166C143.803 26.1168 143.837 25.9999 143.836 25.8807C143.836 25.802 143.821 25.7241 143.79 25.6516C143.76 25.579 143.716 25.5131 143.66 25.4578C143.604 25.4025 143.538 25.3589 143.465 25.3294C143.393 25.2999 143.315 25.2852 143.237 25.2861Z" fill="#D1D3D4"/>
<path d="M184.327 32.4005C184.082 32.3991 183.843 32.3251 183.64 32.1877C183.437 32.0503 183.279 31.8556 183.187 31.6284C183.094 31.4011 183.07 31.1513 183.119 30.9106C183.167 30.6699 183.286 30.449 183.46 30.2758C183.633 30.1026 183.854 29.9849 184.094 29.9375C184.335 29.89 184.583 29.915 184.81 30.0093C185.036 30.1036 185.229 30.263 185.365 30.4673C185.501 30.6716 185.573 30.9117 185.573 31.1573C185.571 31.4876 185.439 31.8038 185.206 32.0368C184.972 32.2697 184.656 32.4005 184.327 32.4005ZM184.327 30.5559C184.208 30.5559 184.092 30.5912 183.994 30.6573C183.895 30.7233 183.818 30.8173 183.773 30.9271C183.728 31.037 183.716 31.1579 183.739 31.2746C183.762 31.3912 183.819 31.4984 183.903 31.5825C183.987 31.6666 184.094 31.7238 184.21 31.747C184.326 31.7702 184.447 31.7583 184.556 31.7128C184.666 31.6673 184.76 31.5902 184.825 31.4913C184.891 31.3924 184.926 31.2762 184.926 31.1573C184.926 30.9978 184.863 30.8448 184.751 30.732C184.638 30.6193 184.486 30.5559 184.327 30.5559Z" fill="#D1D3D4"/>
<path d="M134.412 7.33374H197.024C197.918 7.33374 198.774 7.68967 199.406 8.32322C200.038 8.95677 200.393 9.81606 200.393 10.712V14.3268H131.051V10.712C131.051 9.81723 131.404 8.95897 132.035 8.32561C132.665 7.69225 133.52 7.33553 134.412 7.33374Z" fill="white"/>
<path d="M200.393 14.6781H131.051C130.961 14.6781 130.876 14.6425 130.813 14.5791C130.749 14.5158 130.714 14.4299 130.714 14.3403V10.712C130.714 9.72757 131.103 8.78338 131.797 8.08666C132.49 7.38995 133.431 6.99764 134.412 6.99585H197.058C198.04 6.99764 198.982 7.38973 199.676 8.08625C200.37 8.78277 200.761 9.72695 200.763 10.712V14.3267C200.765 14.3752 200.757 14.4236 200.739 14.4686C200.721 14.5136 200.693 14.5541 200.658 14.5875C200.623 14.6208 200.581 14.6462 200.535 14.6618C200.489 14.6774 200.441 14.683 200.393 14.6781ZM131.387 14.0024H200.056V10.712C200.054 9.90614 199.734 9.13382 199.166 8.56401C198.598 7.9942 197.828 7.67329 197.025 7.67151H134.378C133.576 7.6733 132.806 7.99442 132.239 8.56442C131.672 9.13443 131.354 9.90676 131.354 10.712L131.387 14.0024Z" fill="#231F20"/>
<path d="M59.4991 49.1096H13.1072C11.7418 49.1096 10.635 50.2198 10.635 51.5893V109.899C10.635 111.268 11.7418 112.378 13.1072 112.378H59.4991C60.8644 112.378 61.9713 111.268 61.9713 109.899V51.5893C61.9713 50.2198 60.8644 49.1096 59.4991 49.1096Z" fill="white"/>
<path d="M59.4992 112.737H13.1073C12.3623 112.737 11.6479 112.44 11.1211 111.911C10.5943 111.383 10.2983 110.666 10.2983 109.919V51.5895C10.3001 50.8428 10.5966 50.1272 11.123 49.5992C11.6494 49.0712 12.3629 48.7738 13.1073 48.772H59.4992C60.2437 48.7738 60.9571 49.0712 61.4835 49.5992C62.0099 50.1272 62.3064 50.8428 62.3082 51.5895V109.899C62.3109 110.271 62.2402 110.639 62.1002 110.983C61.9602 111.327 61.7538 111.64 61.4927 111.904C61.2316 112.168 60.921 112.377 60.5789 112.52C60.2367 112.663 59.8698 112.737 59.4992 112.737ZM13.1073 49.4476C12.5415 49.4494 11.9994 49.6756 11.5994 50.0769C11.1993 50.4782 10.9737 51.022 10.972 51.5895V109.899C10.9693 110.182 11.0225 110.463 11.1287 110.725C11.2348 110.987 11.3916 111.225 11.5902 111.426C11.7888 111.628 12.0251 111.787 12.2855 111.896C12.5459 112.005 12.8252 112.061 13.1073 112.061H59.4992C60.0656 112.061 60.6087 111.835 61.0092 111.434C61.4096 111.032 61.6346 110.487 61.6346 109.919V51.5895C61.6328 51.022 61.4073 50.4782 61.0072 50.0769C60.6071 49.6756 60.065 49.4494 59.4992 49.4476H13.1073Z" fill="#231F20"/>
<path d="M49.0313 99.0138H21.3659C21.2765 99.0138 21.1909 98.9782 21.1277 98.9148C21.0645 98.8515 21.0291 98.7656 21.0291 98.676C21.0308 98.5869 21.0668 98.502 21.1296 98.439C21.1924 98.376 21.2771 98.3399 21.3659 98.3381H49.0313C49.1206 98.3381 49.2063 98.3737 49.2694 98.4371C49.3326 98.5004 49.3681 98.5864 49.3681 98.676C49.3681 98.7656 49.3326 98.8515 49.2694 98.9148C49.2063 98.9782 49.1206 99.0138 49.0313 99.0138Z" fill="#D1D3D4"/>
<path d="M35.6735 103.548H21.3659C21.2771 103.546 21.1924 103.51 21.1296 103.447C21.0668 103.384 21.0308 103.299 21.0291 103.21C21.0291 103.12 21.0645 103.034 21.1277 102.971C21.1909 102.908 21.2765 102.872 21.3659 102.872H35.6735C35.7628 102.872 35.8485 102.908 35.9116 102.971C35.9748 103.034 36.0103 103.12 36.0103 103.21C36.0085 103.299 35.9725 103.384 35.9097 103.447C35.8469 103.51 35.7622 103.546 35.6735 103.548Z" fill="#D1D3D4"/>
<path d="M23.0768 63.3526C27.1185 67.4065 31.1445 71.447 35.1548 75.4739C35.2162 75.5409 35.2913 75.5937 35.3751 75.6287C35.4588 75.6637 35.5491 75.6801 35.6398 75.6766H54.144C54.0426 78.5435 53.2557 81.344 51.8495 83.8421C50.4433 86.3401 48.4591 88.4625 46.0641 90.0305C43.669 91.5984 40.9333 92.566 38.0875 92.8515C35.2416 93.1371 32.369 92.7324 29.7118 91.6714C27.0545 90.6105 24.6904 88.9244 22.8187 86.7553C20.947 84.5861 19.6226 81.9975 18.957 79.2076C18.2914 76.4176 18.3041 73.508 18.9942 70.724C19.6842 67.9401 21.0313 65.3632 22.9219 63.2107L23.0768 63.3526Z" fill="#3343EA"/>
<path d="M36.9465 57.1165V74.3998H37.1217L53.8004 74.3593C54.1709 74.3593 54.1709 74.3593 54.1439 73.9877C53.9336 70.7005 52.8307 67.5337 50.9547 64.8302C49.0787 62.1268 46.501 59.9896 43.5008 58.6502C41.6695 57.8478 39.7193 57.3525 37.7279 57.184L36.9465 57.1165Z" fill="#D1D3D4"/>
<path d="M35.6735 74.1698V57.1296C33.67 57.2339 31.695 57.6511 29.8197 58.3661C27.5765 59.2562 25.5302 60.581 23.7976 62.2646L35.6735 74.1698Z" fill="#D1D3D4"/>
<path d="M89.145 64.9674C85.1774 63.7715 83.0825 59.1162 82.0249 55.4136C80.8393 51.2042 79.4449 47.7583 81.1357 43.3733C81.5197 42.3666 82.1394 41.3463 83.1566 41.022C83.4104 40.9853 83.6551 40.9005 83.8773 40.772C84.0541 40.5968 84.1859 40.3812 84.2613 40.1437C86.6728 34.4411 93.4966 34.2857 98.616 35.0897C101.58 35.5559 105.426 36.914 106.349 39.968C108.04 45.5962 106.612 51.7177 103.5 56.5825C100.59 61.1567 95.0863 66.7917 89.145 64.9674Z" fill="white"/>
<path d="M91.4148 65.6429C90.6136 65.645 89.8166 65.5265 89.0504 65.2916C84.9077 64.0416 82.7656 59.285 81.7013 55.508C81.5665 55.0283 81.4318 54.5553 81.2904 54.0891C80.2126 50.4203 79.2695 47.2447 80.8188 43.2786C81.3645 41.8529 82.1324 40.9949 83.0822 40.7246L83.2843 40.6773C83.4487 40.6787 83.608 40.6197 83.7321 40.5114C83.8562 40.4031 83.9365 40.2531 83.9579 40.0895C86.4705 34.1707 93.3885 33.941 98.6966 34.7856C100.717 35.1031 105.608 36.245 106.706 39.9003C108.309 45.2515 107.258 51.3865 103.816 56.7918C100.899 61.2984 96.3053 65.6429 91.4148 65.6429ZM94.4057 35.0761C90.364 35.0761 86.3223 36.2247 84.5911 40.2719C84.5008 40.5655 84.3332 40.8292 84.1061 41.0354C83.9055 41.1768 83.6749 41.2693 83.4325 41.3057L83.2641 41.353C82.5298 41.5557 81.9168 42.2786 81.4453 43.4948C79.9903 47.2717 80.8929 50.346 81.937 53.9C82.0785 54.3662 82.2132 54.8391 82.3547 55.3256C83.3718 58.9336 85.3927 63.4876 89.2458 64.6497C94.6347 66.2645 100.024 61.4471 103.237 56.3999C106.571 51.1838 107.595 45.2312 106.046 40.0625C105.056 36.7787 100.495 35.7247 98.5821 35.4274C97.2011 35.2025 95.8047 35.0851 94.4057 35.0761Z" fill="#231F20"/>
<path d="M107.171 53.5759C107.171 53.5759 111.422 58.9069 110.755 60.1568C110.088 61.4068 107.447 60.8325 107.447 60.8325" fill="white"/>
<path d="M108.707 61.3254C108.254 61.3259 107.803 61.2806 107.359 61.1903C107.27 61.1723 107.192 61.1196 107.141 61.0435C107.09 60.9675 107.072 60.8745 107.09 60.7849C107.108 60.6953 107.16 60.6165 107.236 60.5658C107.312 60.5151 107.405 60.4967 107.494 60.5146C108.168 60.6497 109.993 60.8254 110.438 59.9876C110.788 59.3119 108.862 56.2512 106.888 53.7715C106.832 53.7013 106.805 53.6117 106.814 53.522C106.823 53.4324 106.866 53.3497 106.935 53.2918C107.007 53.2378 107.096 53.2133 107.185 53.2234C107.274 53.2335 107.356 53.2773 107.413 53.3459C108.444 54.6431 111.751 58.9606 111.031 60.3052C110.613 61.1362 109.555 61.3254 108.707 61.3254Z" fill="#231F20"/>
<path d="M105.689 46.1437C108.249 47.8733 107.932 52.0624 108.155 54.7448C108.464 58.515 108.689 62.2941 108.828 66.0823C108.916 68.4809 102.766 69.0958 101.6 68.4809L103.419 77.8388L90.0208 74.0281L89.4482 63.0892C89.4482 63.0892 93.4899 62.7446 95.5108 57.6839C97.5316 52.6232 96.7031 45.1166 96.7031 45.1166C96.7031 45.1166 103.19 44.4477 105.689 46.1437Z" fill="white"/>
<path d="M103.419 78.1764H103.324L89.9127 74.3657C89.8447 74.3475 89.7841 74.3084 89.7394 74.2538C89.6947 74.1993 89.6682 74.1321 89.6635 74.0616L89.0909 63.116C89.087 63.0296 89.1163 62.9451 89.1727 62.8797C89.2291 62.8144 89.3083 62.7732 89.3941 62.7646C89.5557 62.7646 93.2943 62.366 95.1602 57.5485C97.08 52.5892 96.339 45.211 96.3323 45.1367C96.3267 45.0472 96.3529 44.9586 96.4064 44.8867C96.4347 44.8523 96.4695 44.8238 96.5088 44.8029C96.5481 44.782 96.5911 44.7692 96.6354 44.7651C96.9049 44.7651 103.311 44.1367 105.877 45.8731C108.147 47.4137 108.289 50.6568 108.403 53.3054C108.403 53.8189 108.451 54.3121 108.491 54.7648C108.801 58.535 109.03 62.3525 109.165 66.1159C109.162 66.4975 109.051 66.8706 108.846 67.1921C108.641 67.5136 108.35 67.7706 108.006 67.9334C106.437 68.9199 103.473 69.2509 102.031 69.0077L103.749 77.7913C103.759 77.8485 103.756 77.9074 103.738 77.9628C103.721 78.0183 103.689 78.0684 103.648 78.1088C103.581 78.1561 103.5 78.1798 103.419 78.1764ZM90.3236 73.7711L102.981 77.3656L101.27 68.5483C101.255 68.4856 101.26 68.42 101.283 68.3598C101.305 68.2996 101.346 68.2477 101.398 68.2104C101.452 68.1776 101.513 68.1603 101.576 68.1603C101.639 68.1603 101.701 68.1776 101.755 68.2104C102.503 68.6091 105.965 68.3996 107.649 67.3456C108.228 66.9807 108.511 66.5686 108.491 66.1226C108.356 62.366 108.127 58.5553 107.817 54.7986C107.777 54.3392 107.757 53.8392 107.73 53.3122C107.622 50.8528 107.487 47.792 105.5 46.4475C103.479 45.0556 98.3801 45.3259 97.0328 45.4205C97.1608 46.9677 97.5515 53.2581 95.7867 57.8053C94.0218 62.3525 90.8221 63.2106 89.778 63.4065L90.3236 73.7711Z" fill="#231F20"/>
<path d="M108.485 63.2782C108.485 63.2782 104.793 63.2782 103.911 58.2783L108.485 63.2782Z" fill="white"/>
<path d="M108.485 63.6163C108.444 63.6163 104.497 63.5555 103.574 58.3394C103.56 58.2508 103.582 58.1604 103.633 58.0873C103.685 58.0141 103.763 57.964 103.85 57.9475C103.938 57.9317 104.028 57.9512 104.101 58.0019C104.174 58.0525 104.225 58.1301 104.241 58.2177C105.056 62.8663 108.35 62.9474 108.485 62.9474C108.574 62.9474 108.66 62.983 108.723 63.0463C108.786 63.1097 108.822 63.1956 108.822 63.2852C108.82 63.3736 108.784 63.4578 108.721 63.5197C108.658 63.5816 108.573 63.6163 108.485 63.6163Z" fill="#231F20"/>
<path d="M100.179 56.6569C99.9868 55.725 99.5416 54.8645 98.8924 54.1705C98.4664 53.5683 97.9533 53.0332 97.37 52.5827C97.0775 52.3587 96.7389 52.2031 96.3788 52.1271C96.0187 52.0511 95.6462 52.0567 95.2886 52.1435C94.9855 52.2542 94.709 52.4274 94.4769 52.6521C94.2448 52.8767 94.0624 53.1477 93.9413 53.4475C93.6993 54.0542 93.5957 54.7076 93.6382 55.3596C93.7018 56.7855 94.1395 58.1693 94.9072 59.3711C95.6748 60.5729 96.7451 61.5501 98.01 62.2041L97.7877 61.9946" fill="white"/>
<path d="M97.9896 62.5283C97.9376 62.5274 97.8866 62.5135 97.8414 62.4877C96.5268 61.8026 95.414 60.784 94.6139 59.5334C93.8138 58.2828 93.3542 56.8437 93.281 55.3595C93.2397 54.6677 93.3525 53.9753 93.6111 53.3326C93.7543 52.9853 93.9694 52.6725 94.2424 52.415C94.5153 52.1576 94.8397 51.9613 95.1941 51.8393C95.6004 51.7366 96.0245 51.7269 96.435 51.8111C96.8455 51.8954 97.2318 52.0713 97.5652 52.3258C98.1766 52.7926 98.7128 53.3509 99.155 53.9812C99.8443 54.7241 100.311 55.6467 100.502 56.6433C100.512 56.7319 100.486 56.8207 100.43 56.8903C100.375 56.9599 100.294 57.0047 100.206 57.0149C100.117 57.0244 100.029 56.9985 99.9595 56.9428C99.8901 56.8871 99.8455 56.8062 99.8353 56.7176C99.6455 55.8467 99.2242 55.0435 98.6161 54.3933C98.2121 53.8208 97.7264 53.3108 97.1745 52.8799C96.9234 52.6856 96.6324 52.5496 96.3226 52.4819C96.0127 52.4141 95.6917 52.4162 95.3827 52.488C95.1217 52.5824 94.8834 52.7311 94.6837 52.9244C94.4841 53.1177 94.3274 53.3512 94.2241 53.6096C94.0012 54.1691 93.9068 54.7719 93.9479 55.373C94.0123 56.653 94.3886 57.8976 95.0439 58.9978C95.6993 60.098 96.6135 61.0202 97.7067 61.6837C97.7558 61.6738 97.8066 61.676 97.8547 61.6901C97.9028 61.7042 97.9468 61.7299 97.9829 61.7648L98.2119 61.9675C98.265 62.0129 98.3026 62.0737 98.3197 62.1416C98.3368 62.2094 98.3325 62.2809 98.3074 62.3461C98.2822 62.4114 98.2375 62.4672 98.1794 62.5059C98.1213 62.5446 98.0526 62.5642 97.9829 62.5621L97.9896 62.5283Z" fill="#231F20"/>
<path d="M101.6 68.4809C101.6 68.4809 98.3061 67.8052 96.6221 65.7107C96.6221 65.7107 97.2148 70.7106 102.267 71.9268L101.6 68.4809Z" fill="#231F20"/>
<path d="M102.267 72.2644H102.186C96.9658 71.0145 96.2921 65.8186 96.2854 65.7646C96.2766 65.692 96.2916 65.6185 96.328 65.5551C96.3645 65.4917 96.4204 65.442 96.4875 65.4132C96.5539 65.3837 96.6282 65.3769 96.6989 65.394C96.7695 65.4111 96.8325 65.4511 96.8782 65.5078C98.4747 67.4605 101.634 68.1564 101.668 68.1632C101.733 68.1769 101.793 68.2099 101.84 68.2581C101.887 68.3062 101.918 68.3673 101.93 68.4334L102.604 71.8725C102.614 71.9216 102.613 71.9723 102.601 72.021C102.589 72.0696 102.566 72.115 102.535 72.1538C102.503 72.1926 102.463 72.2239 102.418 72.2453C102.373 72.2668 102.324 72.2779 102.274 72.2779L102.267 72.2644ZM97.215 66.7781C97.5428 67.8783 98.136 68.8805 98.942 69.6961C99.748 70.5116 100.742 71.1152 101.836 71.4536L101.311 68.751C99.8253 68.388 98.4309 67.7209 97.215 66.7916V66.7781Z" fill="#231F20"/>
<path d="M105.327 51.2035C105.384 50.4594 105.193 49.8378 104.9 49.8151C104.607 49.7923 104.323 50.3771 104.265 51.1212C104.208 51.8653 104.399 52.4869 104.692 52.5096C104.985 52.5324 105.269 51.9476 105.327 51.2035Z" fill="#231F20"/>
<path d="M69.7381 96.4126L62.8268 108.574L44.8278 90.0479C44.8278 90.0479 46.2828 82.1765 44.3428 82.8048C43.1171 83.2427 42.0514 84.0409 41.2846 85.0953C41.2846 85.0953 39.6881 74.2848 35.4848 77.8387C31.2814 81.3927 33.2147 87.6358 36.4009 93.6356C38.7653 98.0882 59.7754 130.567 65.6021 129.263C71.4289 127.959 85.265 98.4599 85.265 98.4599L69.7381 96.4126Z" fill="white"/>
<path d="M65.2791 129.628C58.6575 129.628 38.2132 97.7639 36.1048 93.8181C33.4508 88.8114 30.4734 81.6562 35.2695 77.6023C36.1587 76.8455 37.0209 76.6158 37.836 76.9266C40.0455 77.7644 41.1367 82.4738 41.487 84.3588C42.234 83.5235 43.1828 82.8953 44.2421 82.5346C44.3851 82.4784 44.5407 82.4632 44.6918 82.4907C44.8429 82.5181 44.9833 82.5871 45.0976 82.69C46.2225 83.6832 45.4344 88.6087 45.1919 89.9871L62.7531 108.007L69.4488 96.2302C69.4818 96.1716 69.5315 96.1242 69.5915 96.0941C69.6515 96.064 69.7191 96.0526 69.7856 96.0613L85.2788 98.0882C85.3315 98.0947 85.3818 98.1142 85.4253 98.1448C85.4688 98.1754 85.5041 98.2163 85.528 98.2639C85.5512 98.3112 85.5633 98.3632 85.5633 98.4159C85.5633 98.4686 85.5512 98.5206 85.528 98.568C84.9554 99.7774 71.5437 128.236 65.6294 129.554C65.5152 129.59 65.398 129.614 65.2791 129.628ZM37.1152 77.4469C36.5787 77.4965 36.0773 77.736 35.7007 78.1225C32.3326 80.9873 32.6492 85.8791 36.7043 93.5073C39.2708 98.345 60.1192 130.162 65.5284 128.966C70.7556 127.797 83.0424 102.358 84.7668 98.7639L69.9473 96.8045L63.1438 108.77C63.1177 108.816 63.0817 108.854 63.0386 108.884C62.9954 108.913 62.9461 108.932 62.8945 108.939C62.8427 108.947 62.7899 108.941 62.7406 108.924C62.6913 108.906 62.6471 108.877 62.6116 108.838L44.6126 90.3114C44.5759 90.2722 44.5488 90.2248 44.5336 90.1732C44.5184 90.1216 44.5155 90.0671 44.525 90.0141C44.9831 87.5209 45.3401 83.7575 44.68 83.1764C44.68 83.1764 44.6059 83.1156 44.4711 83.1764C43.3196 83.5947 42.3167 84.3445 41.5881 85.3318C41.5488 85.3877 41.4941 85.431 41.4307 85.4562C41.3672 85.4814 41.2979 85.4875 41.231 85.4737C41.1657 85.4583 41.1065 85.4238 41.0609 85.3744C41.0152 85.325 40.9854 85.2632 40.9751 85.1967C40.6989 83.3251 39.5672 78.3184 37.607 77.5887C37.4536 77.5104 37.2867 77.4622 37.1152 77.4469Z" fill="#231F20"/>
<path d="M122.388 90.9598C122.388 90.9598 136.318 87.3383 141.539 84.2641C147.265 80.8858 158.049 59.5484 161.552 54.2445C163.453 51.3156 164.866 48.0956 165.735 44.711C166.139 43.1975 166.328 42.1029 165.573 40.657C165.419 40.353 162.946 37.6368 162.832 37.9544C163.505 36.0558 164.179 34.2518 164.893 32.3734C165.082 31.8532 165.223 31.1978 164.826 30.8194C164.652 30.683 164.437 30.6089 164.216 30.6089C163.995 30.6089 163.781 30.683 163.606 30.8194C163.255 31.0895 162.97 31.436 162.771 31.8329L157.045 41.7921C157.091 40.5624 156.844 39.3394 156.325 38.2246C156.243 38.0009 156.095 37.8076 155.9 37.6706C155.274 37.3193 154.668 38.1774 154.472 38.8665C153.455 42.461 154.189 46.792 151.993 49.9744C150.323 52.3932 135.483 70.2441 135.483 70.2441L122.388 73.6224" fill="white"/>
<path d="M122.388 91.2978C122.298 91.3094 122.208 91.285 122.137 91.2299C122.065 91.1748 122.019 91.0935 122.007 91.0039C121.996 90.9143 122.02 90.8237 122.075 90.7521C122.13 90.6805 122.211 90.6338 122.3 90.6221C122.442 90.5883 136.251 86.9871 141.37 83.9669C145.513 81.521 152.552 69.1497 157.214 60.9607C158.898 58.0081 160.346 55.4541 161.255 54.0555C163.134 51.1477 164.529 47.9529 165.385 44.5962C165.769 43.1773 165.971 42.1436 165.25 40.7585C164.53 39.8525 163.727 39.0156 162.852 38.2585C162.803 38.2686 162.753 38.2686 162.704 38.2585C162.62 38.2279 162.551 38.1656 162.512 38.0849C162.473 38.0041 162.467 37.9113 162.495 37.8261C162.906 36.6099 163.364 35.414 163.802 34.2519C164.058 33.5762 164.307 32.9006 164.556 32.2249C164.805 31.5493 164.785 31.2317 164.556 31.0358C164.44 30.9496 164.3 30.9031 164.155 30.9031C164.011 30.9031 163.871 30.9496 163.755 31.0358C163.453 31.2863 163.209 31.5999 163.041 31.9546L157.295 41.9341C157.258 42.0001 157.2 42.0515 157.13 42.0797C157.06 42.108 156.983 42.1115 156.911 42.0895C156.852 42.0641 156.803 42.0227 156.767 41.9701C156.731 41.9175 156.711 41.8559 156.709 41.7922C156.748 40.629 156.517 39.4726 156.035 38.4139C155.978 38.2562 155.878 38.118 155.745 38.0153C155.708 37.994 155.667 37.9827 155.624 37.9827C155.581 37.9827 155.54 37.994 155.503 38.0153C155.158 38.2524 154.917 38.6126 154.829 39.022C154.483 40.3959 154.257 41.7977 154.156 43.2111C153.933 45.6435 153.697 48.1637 152.269 50.2245C150.612 52.6366 136.345 69.7645 135.739 70.4942C135.694 70.5484 135.632 70.5864 135.564 70.6023L122.469 73.9806C122.382 74.0014 122.291 73.9876 122.214 73.9422C122.138 73.8969 122.081 73.8234 122.058 73.7374C122.047 73.6944 122.044 73.6495 122.05 73.6055C122.056 73.5615 122.071 73.5191 122.094 73.4808C122.116 73.4425 122.146 73.4091 122.182 73.3824C122.217 73.3557 122.257 73.3363 122.3 73.3253L135.294 69.947C136.392 68.5956 150.114 52.1096 151.717 49.8123C153.064 47.8934 153.266 45.4611 153.489 43.1165C153.583 41.6599 153.808 40.2148 154.162 38.7991C154.233 38.4959 154.367 38.2108 154.553 37.9619C154.74 37.7131 154.976 37.5058 155.247 37.3532C155.38 37.2966 155.524 37.2721 155.667 37.2814C155.811 37.2908 155.951 37.3339 156.075 37.4072C156.334 37.5626 156.533 37.8005 156.641 38.0829C157.013 38.8808 157.252 39.7344 157.348 40.6098L162.495 31.6574C162.72 31.2107 163.045 30.8222 163.445 30.5223C163.685 30.3461 163.976 30.2546 164.273 30.2619C164.571 30.2692 164.857 30.375 165.088 30.5628C165.506 30.9614 165.56 31.6101 165.237 32.4817C164.987 33.1573 164.731 33.833 164.475 34.5086C164.078 35.5627 163.667 36.6505 163.283 37.7518C164.254 38.5497 165.131 39.4564 165.897 40.4544C166.725 42.049 166.496 43.2517 166.085 44.7787C165.205 48.1959 163.779 51.4474 161.862 54.4068C160.946 55.7919 159.504 58.3324 157.82 61.2715C152.842 70.0145 146.032 81.994 141.727 84.5277C136.534 87.5952 123.061 91.1086 122.489 91.2843L122.388 91.2978Z" fill="#231F20"/>
<path d="M125.723 149.222L121.364 129.344L77.896 141.04C77.896 141.04 77.9836 144.303 78.1048 149.209L125.723 149.222Z" fill="#231F20"/>
<path d="M134.479 68.8187C134.479 68.8187 85.0223 67.7715 78.7442 76.6767C73.8585 84.0667 69.767 91.9551 66.5383 100.21L75.4301 108.547C75.3908 120.339 75.989 132.124 77.2219 143.851C92.5466 146.553 124.294 134.256 124.025 134.135L119.983 92.9195L138.912 87.0548L134.479 68.8187Z" fill="#3343EA"/>
<path d="M74.8507 105.453C74.8065 105.451 74.763 105.441 74.7228 105.422C74.6826 105.403 74.6465 105.377 74.6164 105.344C74.5864 105.312 74.5631 105.273 74.5478 105.232C74.5325 105.19 74.5256 105.146 74.5274 105.101C74.5274 104.358 75.1134 86.7708 77.5182 80.6223C77.5338 80.5805 77.5577 80.5422 77.5884 80.5098C77.6191 80.4775 77.656 80.4517 77.6969 80.434C77.7378 80.4163 77.7819 80.4071 77.8264 80.407C77.8709 80.4068 77.9151 80.4157 77.9561 80.4332C77.9976 80.448 78.0356 80.4713 78.0678 80.5014C78.1 80.5316 78.1258 80.568 78.1434 80.6085C78.1611 80.649 78.1703 80.6927 78.1705 80.7369C78.1707 80.7811 78.162 80.8249 78.1447 80.8656C75.787 86.906 75.2077 104.946 75.201 105.122C75.1975 105.212 75.1588 105.297 75.0933 105.359C75.0278 105.421 74.9407 105.455 74.8507 105.453Z" fill="#231F20"/>
<path d="M113.213 95.0275C113.14 95.0286 113.069 95.0054 113.01 94.9613C112.952 94.9173 112.909 94.855 112.89 94.7843C112.867 94.6974 112.879 94.605 112.923 94.5267C112.967 94.4485 113.04 94.3906 113.126 94.3654L127.103 90.379C127.193 90.3539 127.288 90.3654 127.369 90.411C127.45 90.4566 127.509 90.5326 127.534 90.6222C127.56 90.7118 127.548 90.8077 127.503 90.8888C127.457 90.9699 127.381 91.0295 127.292 91.0546L113.308 95.041C113.276 95.0432 113.244 95.0386 113.213 95.0275Z" fill="#231F20"/>
<path d="M167.857 142.357H143.412C143.072 142.358 142.737 142.292 142.423 142.162C142.11 142.033 141.825 141.842 141.585 141.601C141.345 141.361 141.155 141.075 141.026 140.761C140.897 140.447 140.831 140.11 140.832 139.77V112.683C140.832 112.343 140.898 112.006 141.028 111.692C141.158 111.378 141.348 111.093 141.587 110.853C141.827 110.612 142.111 110.422 142.424 110.292C142.737 110.162 143.073 110.095 143.412 110.095H164.967L170.41 115.419V139.743C170.414 140.082 170.35 140.42 170.224 140.735C170.098 141.05 169.911 141.338 169.673 141.58C169.436 141.823 169.154 142.017 168.842 142.15C168.531 142.283 168.196 142.354 167.857 142.357Z" fill="white"/>
<path d="M167.857 142.695H143.412C142.638 142.695 141.896 142.387 141.349 141.838C140.802 141.29 140.495 140.546 140.495 139.77V112.683C140.497 111.907 140.805 111.164 141.351 110.616C141.898 110.068 142.639 109.759 143.412 109.757H164.967C165.011 109.756 165.054 109.764 165.095 109.78C165.135 109.796 165.172 109.821 165.203 109.852L170.653 115.182C170.715 115.245 170.752 115.33 170.754 115.419V139.743C170.759 140.519 170.457 141.266 169.914 141.82C169.371 142.373 168.631 142.688 167.857 142.695ZM143.412 110.433C142.817 110.434 142.248 110.672 141.827 111.094C141.407 111.515 141.17 112.086 141.168 112.683V139.763C141.168 140.058 141.227 140.351 141.339 140.624C141.452 140.897 141.617 141.145 141.825 141.354C142.034 141.563 142.281 141.729 142.553 141.842C142.825 141.955 143.117 142.013 143.412 142.013H167.857C168.451 142.011 169.021 141.773 169.441 141.352C169.862 140.93 170.098 140.359 170.1 139.763V115.561L164.853 110.433H143.412Z" fill="#231F20"/>
<path d="M135.254 12.0632C135.879 12.0632 136.385 11.555 136.385 10.9281C136.385 10.3012 135.879 9.79297 135.254 9.79297C134.629 9.79297 134.122 10.3012 134.122 10.9281C134.122 11.555 134.629 12.0632 135.254 12.0632Z" fill="#3343EA"/>
<path d="M139.181 12.0632C139.806 12.0632 140.313 11.555 140.313 10.9281C140.313 10.3012 139.806 9.79297 139.181 9.79297C138.556 9.79297 138.049 10.3012 138.049 10.9281C138.049 11.555 138.556 12.0632 139.181 12.0632Z" fill="#D1D3D4"/>
<path d="M143.108 12.0632C143.733 12.0632 144.24 11.555 144.24 10.9281C144.24 10.3012 143.733 9.79297 143.108 9.79297C142.483 9.79297 141.977 10.3012 141.977 10.9281C141.977 11.555 142.483 12.0632 143.108 12.0632Z" fill="#D1D3D4"/>
<path d="M164.792 28.7455C164.715 28.7449 164.641 28.716 164.584 28.6644C164.519 28.6093 164.479 28.531 164.471 28.4463C164.463 28.3617 164.489 28.2774 164.543 28.2117L167.453 24.7523C167.484 24.716 167.522 24.6869 167.565 24.6671C167.608 24.6472 167.655 24.6371 167.702 24.6375H174.984C175.073 24.6375 175.159 24.6731 175.222 24.7364C175.285 24.7998 175.321 24.8857 175.321 24.9753C175.321 25.0649 175.285 25.1508 175.222 25.2142C175.159 25.2775 175.073 25.3131 174.984 25.3131H167.837L165.021 28.6914C164.954 28.7376 164.873 28.7569 164.792 28.7455Z" fill="#D1D3D4"/>
<path d="M164.994 110.095V115.581L170.437 115.419L164.994 110.095Z" fill="#3343EA"/>
<path d="M164.988 115.919C164.902 115.918 164.82 115.885 164.759 115.824C164.725 115.794 164.697 115.756 164.679 115.714C164.66 115.672 164.651 115.627 164.651 115.581V110.095C164.652 110.028 164.672 109.964 164.709 109.908C164.747 109.853 164.799 109.81 164.86 109.784C164.92 109.758 164.987 109.75 165.052 109.762C165.117 109.774 165.176 109.805 165.223 109.852L170.673 115.183C170.719 115.229 170.75 115.289 170.763 115.353C170.776 115.417 170.77 115.484 170.745 115.545C170.721 115.606 170.68 115.658 170.626 115.696C170.573 115.733 170.509 115.755 170.444 115.757L165.001 115.919H164.988ZM165.324 110.899V115.237L169.629 115.108L165.324 110.899Z" fill="#231F20"/>
<path d="M47.1789 124.365H40.2608C39.2452 124.365 38.4219 125.19 38.4219 126.209V133.148C38.4219 134.167 39.2452 134.993 40.2608 134.993H47.1789C48.1945 134.993 49.0178 134.167 49.0178 133.148V126.209C49.0178 125.19 48.1945 124.365 47.1789 124.365Z" fill="#3343EA"/>
<path d="M45.3535 120.959H38.2064C37.254 120.959 36.4819 121.734 36.4819 122.689V129.858C36.4819 130.813 37.254 131.587 38.2064 131.587H45.3535C46.3058 131.587 47.0779 130.813 47.0779 129.858V122.689C47.0779 121.734 46.3058 120.959 45.3535 120.959Z" fill="white"/>
<path d="M45.3534 131.925H38.2063C37.9345 131.927 37.665 131.875 37.4134 131.772C37.1617 131.669 36.9329 131.517 36.7401 131.324C36.5472 131.132 36.3942 130.904 36.2898 130.652C36.1853 130.4 36.1316 130.13 36.1316 129.858V122.689C36.1316 122.141 36.3488 121.615 36.7353 121.227C37.1219 120.839 37.6462 120.621 38.1929 120.621H45.3399C45.6106 120.621 45.8786 120.675 46.1287 120.779C46.3788 120.883 46.606 121.035 46.7974 121.227C46.9889 121.419 47.1407 121.647 47.2443 121.898C47.3479 122.148 47.4012 122.417 47.4012 122.689V129.858C47.4012 130.404 47.1859 130.927 46.8022 131.315C46.4186 131.702 45.8977 131.922 45.3534 131.925ZM38.2063 121.297C38.023 121.295 37.8411 121.33 37.6712 121.399C37.5012 121.468 37.3467 121.57 37.2164 121.7C37.0861 121.829 36.9827 121.983 36.9121 122.153C36.8415 122.323 36.8052 122.505 36.8052 122.689V129.858C36.8052 130.227 36.9514 130.581 37.2116 130.842C37.4719 131.103 37.8248 131.249 38.1929 131.249H45.3399C45.7079 131.249 46.0609 131.103 46.3211 130.842C46.5814 130.581 46.7276 130.227 46.7276 129.858V122.689C46.7276 122.32 46.5814 121.966 46.3211 121.705C46.0609 121.444 45.7079 121.297 45.3399 121.297H38.2063Z" fill="#231F20"/>
<path d="M154.176 136.31V134.716C153.597 134.553 153.037 134.439 152.492 134.249C151.439 133.919 150.528 133.243 149.905 132.331C149.393 131.525 149.132 130.583 149.157 129.628H152.263C152.283 130.17 152.481 130.69 152.826 131.107C153.17 131.525 153.642 131.817 154.169 131.939V127.709C153.543 127.527 152.923 127.358 152.303 127.162C151.628 126.967 151.009 126.612 150.498 126.128C149.968 125.596 149.617 124.911 149.494 124.169C149.314 123.267 149.382 122.332 149.69 121.466C149.918 120.842 150.281 120.276 150.753 119.809C151.224 119.342 151.793 118.985 152.418 118.763C152.933 118.6 153.457 118.465 153.987 118.358L154.176 118.317V116.115H157.086V116.324C157.086 116.926 157.086 117.534 157.086 118.135C157.086 118.284 157.133 118.331 157.274 118.365C158.264 118.557 159.19 118.993 159.969 119.635C160.798 120.314 161.347 121.277 161.512 122.338C161.565 122.628 161.586 122.925 161.626 123.229H158.467C158.462 122.797 158.332 122.376 158.092 122.016C157.853 121.656 157.515 121.374 157.12 121.202V125.155L157.463 125.236C158.317 125.402 159.149 125.667 159.942 126.027C160.537 126.286 161.051 126.702 161.429 127.232C161.806 127.762 162.033 128.384 162.084 129.033C162.27 130.242 161.978 131.477 161.269 132.472C160.686 133.282 159.867 133.891 158.925 134.216C158.339 134.418 157.733 134.547 157.106 134.722V136.27L154.176 136.31ZM157.093 128.277V131.952C157.566 131.883 158.011 131.684 158.379 131.378C158.569 131.223 158.721 131.026 158.823 130.802C158.925 130.579 158.974 130.335 158.967 130.089C158.96 129.844 158.896 129.603 158.782 129.386C158.667 129.169 158.504 128.981 158.305 128.837C157.914 128.622 157.509 128.435 157.093 128.277ZM154.169 124.513V120.959C153.788 121.127 153.417 121.316 153.058 121.527C152.851 121.674 152.685 121.871 152.573 122.099C152.461 122.327 152.407 122.579 152.417 122.833C152.426 123.087 152.498 123.334 152.626 123.553C152.755 123.772 152.935 123.956 153.152 124.088C153.469 124.256 153.812 124.371 154.169 124.52V124.513Z" fill="#3343EA"/>
<path d="M56.6091 21.7319H26.9431V39.4612H56.6091V21.7319Z" fill="#D1D3D4"/>
</svg>
