<svg width="160" height="134" viewBox="0 0 160 134" fill="none" xmlns="http://www.w3.org/2000/svg">
<path d="M20.0793 87.7026V91.4311L65.611 133.61L159.399 101.358V97.6759L20.0793 87.7026Z" fill="#231F20"/>
<path d="M65.594 133.898C65.5219 133.898 65.4523 133.871 65.3985 133.823L19.8842 91.6445C19.8555 91.6169 19.8326 91.5837 19.8168 91.5471C19.801 91.5104 19.7926 91.4709 19.7922 91.431V87.7026C19.7928 87.6635 19.8012 87.6249 19.817 87.5892C19.8328 87.5535 19.8557 87.5214 19.8842 87.4948C19.9112 87.4662 19.9446 87.4446 19.9815 87.4315C20.0185 87.4185 20.0581 87.4144 20.0969 87.4198L159.416 97.3873C159.489 97.3917 159.558 97.424 159.608 97.4777C159.659 97.5313 159.687 97.6022 159.686 97.6758V101.358C159.685 101.418 159.666 101.476 159.631 101.524C159.596 101.573 159.547 101.609 159.491 101.629L65.7032 133.881L65.594 133.898ZM20.3498 91.304L65.663 133.281L159.094 101.15V97.9471L20.3671 88.0142L20.3498 91.304Z" fill="#231F20"/>
<path d="M20.0795 87.7026L0.529785 20.2907L97.0135 0.390381L110.763 59.7048L20.0795 87.7026Z" fill="white"/>
<path d="M20.0795 87.9912C20.0314 87.9907 19.9842 87.9788 19.9416 87.9565C19.9079 87.9388 19.8783 87.9142 19.8546 87.8844C19.8308 87.8546 19.8135 87.8202 19.8036 87.7834L0.25968 20.3715C0.24873 20.334 0.245631 20.2947 0.250578 20.2559C0.255524 20.2172 0.268409 20.1799 0.28842 20.1464C0.309355 20.1119 0.336899 20.0819 0.369458 20.0581C0.402018 20.0343 0.438947 20.0173 0.478112 20.0079L96.9561 0.107534C96.9927 0.0990745 97.0307 0.0980668 97.0677 0.104568C97.1047 0.111069 97.1401 0.124949 97.1717 0.145389C97.2033 0.165829 97.2305 0.192416 97.2517 0.223582C97.2729 0.254748 97.2877 0.289861 97.2952 0.326854L111.045 59.6355C111.063 59.7066 111.052 59.7818 111.016 59.8454C110.979 59.9089 110.92 59.9557 110.849 59.976L20.183 87.9796C20.1499 87.9916 20.1144 87.9955 20.0795 87.9912ZM0.891982 20.5158L20.275 87.3447L110.43 59.4969L96.7951 0.730864L0.891982 20.5158Z" fill="#231F20"/>
<path d="M22.8847 82.1677L5.48486 23.9557L93.5762 5.0769L106.211 57.6443L22.8847 82.1677Z" fill="white"/>
<path d="M22.8904 82.4564C22.828 82.4573 22.767 82.4374 22.717 82.3998C22.6671 82.3622 22.631 82.309 22.6145 82.2486L5.23762 24.0366C5.22227 24.0011 5.21436 23.9627 5.21436 23.924C5.21436 23.8853 5.22227 23.847 5.23762 23.8115C5.25804 23.7765 5.28543 23.7462 5.31807 23.7223C5.35071 23.6985 5.3879 23.6817 5.42731 23.673L93.5186 4.79417C93.5924 4.78019 93.6687 4.79515 93.7317 4.83595C93.7948 4.87675 93.84 4.94029 93.8578 5.01349L106.504 57.5751C106.522 57.647 106.511 57.7231 106.475 57.7875C106.439 57.852 106.379 57.9 106.308 57.9214L22.9594 82.4448L22.8904 82.4564ZM5.85268 24.1751L23.0973 81.81L105.872 57.4424L93.3634 5.4175L5.85268 24.1751Z" fill="#231F20"/>
<path d="M110.763 59.7048L20.0793 87.7027L65.6684 128.796L159.399 97.676L110.763 59.7048Z" fill="white"/>
<path d="M65.6687 129.085C65.5986 129.083 65.5312 129.057 65.479 129.01L19.8899 87.9219C19.852 87.888 19.8237 87.8447 19.8078 87.7963C19.792 87.748 19.7892 87.6962 19.7997 87.6464C19.8102 87.5966 19.8337 87.5504 19.8677 87.5126C19.9017 87.4748 19.9451 87.4468 19.9934 87.4313L110.677 59.4277C110.722 59.4132 110.769 59.4098 110.815 59.4178C110.861 59.4259 110.905 59.4451 110.942 59.4738L159.577 97.445C159.617 97.4782 159.647 97.5212 159.665 97.5698C159.683 97.6183 159.689 97.6708 159.681 97.722C159.673 97.7736 159.652 97.8222 159.618 97.862C159.585 97.9018 159.54 97.9313 159.491 97.9471L65.7607 129.067C65.7315 129.079 65.7002 129.085 65.6687 129.085ZM20.6487 87.8295L65.7377 128.467L158.795 97.5892L110.706 60.0394L20.6487 87.8295Z" fill="#231F20"/>
<path d="M109.263 64.9973L30.8115 90.6462L51.689 109.086L132.4 82.1677L109.263 64.9973Z" fill="white"/>
<path d="M51.6889 109.375C51.6188 109.374 51.5515 109.347 51.4993 109.3L30.6218 90.8655C30.5828 90.8321 30.5536 90.7887 30.5374 90.7399C30.5212 90.691 30.5186 90.6387 30.5298 90.5885C30.5402 90.5394 30.5631 90.4939 30.5964 90.4565C30.6297 90.419 30.6721 90.3909 30.7195 90.375L109.177 64.7203C109.22 64.7069 109.266 64.7036 109.311 64.7106C109.356 64.7176 109.398 64.7347 109.435 64.7607L132.572 81.9369C132.614 81.9683 132.647 82.0109 132.666 82.0598C132.685 82.1088 132.691 82.1622 132.681 82.214C132.675 82.2658 132.653 82.3147 132.62 82.3546C132.586 82.3946 132.541 82.4239 132.492 82.4391L51.7982 109.358C51.7637 109.372 51.7262 109.378 51.6889 109.375ZM31.3805 90.7674L51.7522 108.757L131.785 82.0697L109.211 65.3321L31.3805 90.7674Z" fill="#E6E7E8"/>
<path d="M92.2426 51.7514C92.2426 51.7514 67.623 61.4707 44.3543 55.7049C21.0855 49.9391 7.22656 29.7791 7.22656 29.7791L19.6887 71.4613C19.6887 71.4613 28.5064 76.9328 50.3209 76.6557C78.148 76.3267 96.9159 62.4057 96.9159 62.4057L90.5929 51.4744" fill="white"/>
<path d="M48.8665 76.9731C28.2649 76.9731 19.6253 71.7787 19.5506 71.7094C19.4914 71.6715 19.4469 71.6145 19.4241 71.5478L6.96199 29.8598C6.94451 29.7945 6.95044 29.725 6.97876 29.6636C7.00707 29.6023 7.05597 29.5528 7.1169 29.5239C7.17783 29.4951 7.24694 29.4886 7.31213 29.5057C7.37733 29.5228 7.43447 29.5623 7.47358 29.6174C7.61154 29.8136 21.5395 49.7544 44.4346 55.4221C64.0073 60.2702 84.7813 54.0311 90.5755 52.0515L90.3341 51.6417C90.3146 51.6092 90.3019 51.5732 90.2965 51.5357C90.2912 51.4982 90.2935 51.4601 90.3031 51.4235C90.3128 51.3869 90.3296 51.3526 90.3527 51.3227C90.3758 51.2927 90.4047 51.2677 90.4375 51.2492C90.4699 51.2293 90.506 51.2161 90.5435 51.2102C90.581 51.2044 90.6194 51.2061 90.6562 51.2152C90.6931 51.2243 90.7278 51.2407 90.7584 51.2634C90.7889 51.2861 90.8147 51.3146 90.8342 51.3473L91.1273 51.8552L92.1505 51.4859C92.1851 51.4711 92.2224 51.4635 92.26 51.4637C92.2976 51.4639 92.3347 51.4718 92.3692 51.4869C92.4036 51.5021 92.4346 51.5241 92.4603 51.5517C92.486 51.5793 92.5057 51.6119 92.5184 51.6475C92.5324 51.6827 92.5393 51.7204 92.5388 51.7583C92.5383 51.7962 92.5303 51.8337 92.5154 51.8685C92.5005 51.9034 92.4788 51.9349 92.4517 51.9614C92.4246 51.9878 92.3926 52.0086 92.3574 52.0226L91.4205 52.3631L97.1687 62.2845C97.2047 62.3457 97.2164 62.4183 97.2015 62.4878C97.1866 62.5574 97.1462 62.6187 97.0882 62.6596C96.9043 62.7981 77.9294 76.6441 50.3265 76.9673L48.8665 76.9731ZM19.93 71.2708C20.9244 71.8479 30.0008 76.621 50.315 76.3902C76.182 76.0843 94.3923 63.8485 96.5364 62.3422L90.8859 52.5709C85.1894 54.5275 64.1452 60.9108 44.3254 55.9934C24.6665 51.128 11.5606 35.8449 8.00817 31.2623L19.93 71.2708Z" fill="#231F20"/>
<path d="M86.0806 53.2637L93.7774 65.2397L100.434 62.9657L90.8861 48.1155L86.0806 53.2637Z" fill="white"/>
<path d="M93.76 65.5285C93.712 65.5279 93.6649 65.5154 93.6228 65.4923C93.5807 65.4692 93.5449 65.436 93.5186 65.3957L85.8217 53.4255C85.7873 53.3704 85.772 53.3054 85.7782 53.2407C85.7845 53.1759 85.8119 53.1151 85.8562 53.0676L90.6617 47.9194C90.6919 47.8876 90.7286 47.8629 90.7693 47.847C90.81 47.831 90.8538 47.8242 90.8974 47.827C90.9404 47.832 90.9818 47.8465 91.0185 47.8695C91.0553 47.8924 91.0866 47.9233 91.1101 47.9598L100.658 62.8101C100.681 62.8469 100.696 62.8885 100.7 62.9317C100.705 62.975 100.7 63.0188 100.686 63.0599C100.672 63.101 100.648 63.1383 100.617 63.169C100.587 63.1997 100.549 63.223 100.508 63.2371L93.852 65.5111C93.8228 65.523 93.7915 65.5289 93.76 65.5285ZM86.4253 53.2985L93.8979 64.8936L99.991 62.8101L90.8456 48.5831L86.4253 53.2985Z" fill="#231F20"/>
<path d="M122.168 57.373C122.168 57.373 122.294 66.1804 117.19 72.5811C112.085 78.9818 96.2949 82.1677 96.2949 82.1677L101.284 62.7579L122.168 57.373Z" fill="#3343EA"/>
<path d="M96.2951 82.4561C96.2167 82.4538 96.1424 82.4206 96.0881 82.3638C96.0547 82.3282 96.0308 82.2846 96.0187 82.2371C96.0066 82.1897 96.0068 82.1399 96.0192 82.0925L101.003 62.6885C101.017 62.639 101.043 62.5938 101.079 62.5575C101.116 62.5211 101.16 62.4947 101.21 62.4807L122.099 57.0959C122.141 57.0829 122.186 57.0803 122.229 57.0883C122.273 57.0962 122.314 57.1146 122.348 57.1417C122.383 57.1689 122.411 57.204 122.43 57.2443C122.448 57.2845 122.457 57.3286 122.455 57.3729C122.455 57.4595 122.524 66.3535 117.408 72.7599C112.292 79.1663 97.0021 82.3176 96.3526 82.4504L96.2951 82.4561ZM101.52 63.0002L96.6917 81.7866C99.3014 81.2095 112.459 78.0409 116.966 72.3963C121.363 66.8902 121.829 59.4738 121.875 57.7481L101.52 63.0002Z" fill="#231F20"/>
<path d="M104.728 30.241C104.728 30.241 96.7837 26.4953 88.8741 28.5096C80.9646 30.5238 71.572 43.6715 71.572 43.6715L91.2367 47.0998L104.728 30.241Z" fill="#3343EA"/>
<path d="M91.2367 47.417H91.185L71.5203 43.983C71.4729 43.9752 71.4284 43.9551 71.3911 43.9248C71.3538 43.8944 71.325 43.8548 71.3076 43.8098C71.2882 43.7651 71.2807 43.716 71.2857 43.6675C71.2907 43.619 71.3082 43.5725 71.3364 43.5328C71.7215 42.996 80.8842 30.2986 88.8052 28.2554C96.7262 26.2123 104.768 29.9407 104.848 29.9869C104.888 30.0047 104.923 30.0318 104.95 30.066C104.977 30.1001 104.995 30.1403 105.004 30.1832C105.014 30.2248 105.015 30.2683 105.006 30.3103C104.997 30.3524 104.978 30.3917 104.952 30.4256L91.4609 47.3132C91.4335 47.3461 91.3992 47.3725 91.3605 47.3905C91.3217 47.4085 91.2794 47.4175 91.2367 47.417ZM72.0779 43.4982L91.1217 46.7995L104.268 30.339C102.681 29.6695 95.7548 27.0434 88.9489 28.798C81.9706 30.6391 73.6817 41.3511 72.0779 43.4982Z" fill="#231F20"/>
<path d="M86.8967 46.6898C92.3288 38.7538 101.842 29.8021 113.839 22.0336C132.009 10.2538 147.943 14.1843 153.34 16.1062C153.925 16.3139 154.424 16.7092 154.762 17.2309C155.1 17.7526 155.257 18.3716 155.208 18.992C154.726 24.7232 151.76 40.924 133.555 52.698C121.564 60.4723 109.522 65.4935 100.083 67.1904C100.083 67.1904 96.5192 65.0953 91.9264 57.9559C87.3336 50.8164 86.8967 46.6898 86.8967 46.6898Z" fill="#3343EA"/>
<path d="M100.083 67.4907C100.03 67.4919 99.9786 67.4778 99.9336 67.4503C99.7899 67.3638 96.2663 65.2398 91.6849 58.1177C87.1036 50.9956 86.6265 46.892 86.6093 46.7246C86.6033 46.6552 86.6216 46.5858 86.661 46.5284C92.3 38.2808 102.147 29.2599 113.678 21.7915C131.75 10.081 147.5 13.7113 153.438 15.8352C154.084 16.0632 154.637 16.5005 155.008 17.0784C155.38 17.6562 155.549 18.3417 155.49 19.0269C154.961 25.3294 151.783 41.2416 133.716 52.9522C122.185 60.4552 109.941 65.7246 100.129 67.485L100.083 67.4907ZM87.1956 46.765C87.2991 47.4345 88.0636 51.4227 92.1678 57.8003C96.272 64.1778 99.5715 66.5269 100.141 66.902C109.861 65.1302 121.984 59.8723 133.4 52.4731C151.259 40.93 154.398 25.2025 154.921 18.998C154.967 18.4397 154.828 17.8816 154.526 17.4108C154.223 16.94 153.774 16.5829 153.248 16.3951C147.391 14.3115 131.848 10.7216 113.994 22.2878C102.566 29.6754 92.8058 38.5983 87.1956 46.765Z" fill="#231F20"/>
<path d="M155.208 19.0036C154.497 26.1087 152.01 32.9183 147.977 38.8L132.399 14.5595C139.397 13.2883 146.602 13.8185 153.34 16.1005C153.927 16.3089 154.429 16.7068 154.767 17.2321C155.105 17.7574 155.26 18.3804 155.208 19.0036Z" fill="white"/>
<path d="M147.983 39.0888C147.936 39.0883 147.889 39.0759 147.848 39.0527C147.807 39.0295 147.772 38.9962 147.747 38.9561L132.164 14.7155C132.143 14.6734 132.132 14.627 132.132 14.5799C132.132 14.5327 132.143 14.4863 132.164 14.4442C132.183 14.3995 132.213 14.3602 132.251 14.33C132.289 14.2997 132.334 14.2795 132.382 14.2711C139.428 12.9875 146.684 13.5237 153.467 15.8294C154.113 16.0574 154.665 16.4947 155.037 17.0725C155.408 17.6504 155.578 18.3359 155.519 19.0211C154.819 26.1779 152.317 33.0382 148.247 38.9561C148.22 39.0006 148.181 39.0366 148.134 39.0601C148.087 39.0835 148.035 39.0935 147.983 39.0888ZM132.877 14.7732L147.983 38.275C151.856 32.5221 154.24 25.8909 154.921 18.9807C154.967 18.4223 154.828 17.8642 154.526 17.3934C154.223 16.9226 153.774 16.5655 153.248 16.3777C146.697 14.1479 139.694 13.5964 132.877 14.7732Z" fill="#231F20"/>
<path d="M126.295 45.974C132.419 45.974 137.383 40.9894 137.383 34.8406C137.383 28.6918 132.419 23.7073 126.295 23.7073C120.171 23.7073 115.207 28.6918 115.207 34.8406C115.207 40.9894 120.171 45.974 126.295 45.974Z" fill="white"/>
<path d="M126.312 46.2571C123.577 46.2584 120.933 45.2699 118.866 43.4727C116.798 41.6755 115.444 39.1902 115.053 36.4723C114.663 33.7545 115.261 30.9862 116.738 28.6752C118.215 26.3641 120.472 24.665 123.096 23.8895C125.719 23.114 128.533 23.314 131.022 24.4529C133.511 25.5917 135.507 27.5931 136.645 30.09C137.784 32.587 137.987 35.4122 137.219 38.0477C136.451 40.6832 134.762 42.9523 132.463 44.4391C130.629 45.625 128.494 46.2561 126.312 46.2571ZM126.272 23.9904C124.331 23.9929 122.426 24.5207 120.758 25.5184C119.09 26.516 117.721 27.9465 116.794 29.6594C115.868 31.3724 115.418 33.3044 115.493 35.2522C115.567 37.2 116.164 39.0916 117.219 40.728C118.183 42.2267 119.5 43.4635 121.054 44.3289C122.608 45.1943 124.351 45.6616 126.128 45.6893C127.904 45.7171 129.661 45.3045 131.241 44.4881C132.821 43.6716 134.176 42.4766 135.186 41.0087C136.196 39.5409 136.831 37.8455 137.032 36.0728C137.234 34.3001 136.998 32.5048 136.344 30.8459C135.689 29.1869 134.638 27.7155 133.282 26.562C131.927 25.4085 130.308 24.6085 128.571 24.2328C127.815 24.0723 127.045 23.9911 126.272 23.9904Z" fill="#231F20"/>
<path d="M126.295 41.709C130.073 41.709 133.135 38.634 133.135 34.8408C133.135 31.0476 130.073 27.9727 126.295 27.9727C122.517 27.9727 119.455 31.0476 119.455 34.8408C119.455 38.634 122.517 41.709 126.295 41.709Z" fill="#231F20"/>
<path d="M126.307 41.9975C124.592 42.0048 122.932 41.3914 121.632 40.2697C120.331 39.148 119.477 37.5932 119.226 35.8903C118.974 34.1875 119.342 32.4506 120.263 30.9983C121.183 29.546 122.595 28.4755 124.237 27.9831C125.88 27.4907 127.645 27.6094 129.208 28.3174C130.771 29.0254 132.027 30.2753 132.746 31.8379C133.466 33.4005 133.6 35.1712 133.125 36.8252C132.649 38.4791 131.596 39.9057 130.158 40.8432C129.011 41.5906 127.674 41.9913 126.307 41.9975ZM126.307 28.2612C125.048 28.2582 123.816 28.6232 122.76 29.3116C121.433 30.1704 120.458 31.4809 120.015 33.0028C119.572 34.5247 119.69 36.156 120.347 37.5975C121.005 39.0391 122.158 40.1942 123.596 40.8511C125.033 41.5081 126.658 41.6227 128.173 41.1741C129.687 40.7255 130.99 39.7437 131.842 38.4087C132.694 37.0737 133.039 35.4751 132.812 33.9059C132.585 32.3367 131.803 30.9022 130.608 29.8654C129.413 28.8286 127.886 28.2591 126.307 28.2612Z" fill="#231F20"/>
<path d="M130.882 32.1514C130.831 32.1511 130.781 32.137 130.738 32.1106C130.694 32.0842 130.659 32.0464 130.635 32.0013C130.543 31.8455 128.422 28.1459 124.001 30.1775C123.939 30.2026 123.869 30.2048 123.805 30.1837C123.741 30.1626 123.687 30.1196 123.651 30.0621C123.634 30.028 123.625 29.9911 123.623 29.9533C123.621 29.9156 123.627 29.8779 123.64 29.8424C123.653 29.8069 123.672 29.7743 123.698 29.7466C123.724 29.7189 123.755 29.6967 123.789 29.6811C128.704 27.4302 131.141 31.7127 131.164 31.7531C131.199 31.8208 131.207 31.8995 131.185 31.9727C131.164 32.0459 131.115 32.1079 131.049 32.1456C130.995 32.164 130.937 32.166 130.882 32.1514Z" fill="white"/>
<path d="M131.635 34.5407C131.598 34.5378 131.562 34.5276 131.529 34.5106C131.496 34.4937 131.466 34.4703 131.442 34.4418C131.418 34.4134 131.4 34.3805 131.389 34.345C131.377 34.3094 131.373 34.272 131.376 34.2349C131.397 33.8721 131.33 33.5098 131.181 33.1786C131.149 33.1097 131.146 33.0311 131.172 32.9598C131.198 32.8885 131.251 32.8303 131.319 32.7977C131.353 32.7816 131.391 32.7727 131.429 32.7716C131.467 32.7705 131.505 32.7771 131.541 32.7912C131.576 32.8052 131.608 32.8263 131.635 32.8532C131.663 32.8802 131.684 32.9123 131.698 32.9478C131.888 33.3714 131.972 33.8347 131.945 34.2983C131.935 34.3714 131.897 34.4377 131.839 34.4829C131.781 34.5282 131.708 34.549 131.635 34.5407Z" fill="white"/>
<path d="M90.3799 46.3261C90.3152 46.3253 90.2525 46.3029 90.2018 46.2626C90.1425 46.215 90.1045 46.1458 90.0959 46.0701C90.0872 45.9944 90.1088 45.9184 90.1558 45.8586C94.2461 40.9091 98.6304 36.2121 103.285 31.7933C103.341 31.7469 103.412 31.7235 103.484 31.7278C103.557 31.732 103.625 31.7636 103.675 31.8162C103.725 31.8688 103.754 31.9385 103.755 32.0113C103.756 32.0841 103.73 32.1547 103.681 32.2088C99.045 36.6112 94.678 41.2908 90.6041 46.2222C90.5771 46.2555 90.5428 46.2821 90.504 46.3001C90.4651 46.3181 90.4227 46.327 90.3799 46.3261Z" fill="white"/>
<path d="M103.296 54.2563C95.289 59.4507 84.9652 64.5355 84.0685 63.1388C83.1718 61.7421 92.0355 54.3949 100.049 49.2005C108.062 44.006 113.074 44.3408 113.074 44.3408C113.074 44.3408 111.309 49.0677 103.296 54.2563Z" fill="#3343EA"/>
<path d="M84.7238 63.6352C84.5579 63.6583 84.3888 63.6393 84.2322 63.5798C84.0755 63.5203 83.9362 63.4223 83.8271 63.2947C83.6316 62.9945 83.0396 62.0769 88.5291 57.373C92.1409 54.3374 95.9362 51.529 99.8933 48.9639C107.889 43.7694 112.884 44.0407 113.114 44.0522C113.159 44.056 113.203 44.0699 113.241 44.0928C113.28 44.1158 113.313 44.1473 113.338 44.185C113.362 44.2236 113.376 44.2668 113.381 44.3117C113.386 44.3565 113.381 44.4019 113.367 44.4447C113.292 44.6409 111.476 49.3159 103.474 54.4988C98.1458 57.9386 87.9428 63.6352 84.7238 63.6352ZM112.62 44.6352C111.252 44.6929 106.711 45.2123 100.204 49.4429C96.2679 51.995 92.4936 54.7899 88.9027 57.8117C84.879 61.2746 84.1317 62.706 84.3042 63.0061C84.9422 64.0046 94.1911 59.8317 103.135 54.0371C109.648 49.8007 112.005 45.8645 112.62 44.6352Z" fill="#231F20"/>
<path d="M114.753 92.4468L84.4709 101.831L98.1632 112.561L127.945 102.501L114.753 92.4468Z" fill="white"/>
<path d="M98.1633 112.849C98.0985 112.849 98.0358 112.826 97.9851 112.786L84.2986 102.062C84.2565 102.03 84.2241 101.986 84.2049 101.936C84.1856 101.886 84.1803 101.832 84.1894 101.78C84.1992 101.728 84.2233 101.68 84.2588 101.641C84.2944 101.602 84.34 101.574 84.3905 101.56L114.666 92.1699C114.71 92.1559 114.756 92.1528 114.801 92.1609C114.846 92.1689 114.889 92.1879 114.925 92.2161L128.117 102.27C128.16 102.301 128.193 102.344 128.212 102.393C128.231 102.442 128.236 102.495 128.226 102.547C128.221 102.6 128.2 102.65 128.166 102.691C128.132 102.732 128.087 102.762 128.037 102.778L98.2552 112.832C98.2259 112.843 98.1947 112.849 98.1633 112.849ZM85.0861 101.947L98.2207 112.238L127.341 102.426L114.695 92.7875L85.0861 101.947Z" fill="#E6E7E8"/>
<path d="M57.4029 66.5325C48.5449 66.5325 38.336 65.0723 29.0757 60.1376C29.0421 60.1206 29.0123 60.097 28.9879 60.0681C28.9636 60.0393 28.9453 60.0059 28.934 59.9699C28.9228 59.9338 28.9188 59.8959 28.9224 59.8583C28.926 59.8207 28.9371 59.7842 28.955 59.7509C28.9725 59.717 28.9966 59.687 29.0258 59.6625C29.055 59.638 29.0888 59.6196 29.1252 59.6083C29.1615 59.597 29.1998 59.5931 29.2376 59.5968C29.2755 59.6005 29.3123 59.6117 29.3458 59.6297C51.8386 71.6 79.9933 62.9311 80.275 62.8445C80.3118 62.8292 80.3514 62.8217 80.3912 62.8226C80.431 62.8235 80.4703 62.8327 80.5064 62.8496C80.5425 62.8665 80.5747 62.8907 80.601 62.9208C80.6273 62.9509 80.647 62.9861 80.659 63.0242C80.671 63.0624 80.675 63.1026 80.6707 63.1424C80.6664 63.1821 80.6539 63.2206 80.634 63.2552C80.6141 63.2899 80.5872 63.32 80.5551 63.3437C80.523 63.3674 80.4863 63.3841 80.4474 63.3928C72.9425 65.4802 65.1904 66.5364 57.4029 66.5325Z" fill="#E6E7E8"/>
<path d="M52.4189 72.0213C33.9155 72.0213 21.8212 63.4217 21.6833 63.3178C21.6522 63.2959 21.6257 63.2681 21.6054 63.2359C21.5851 63.2037 21.5713 63.1678 21.5649 63.1302C21.5585 63.0927 21.5596 63.0542 21.568 63.0171C21.5765 62.9799 21.5922 62.9448 21.6143 62.9138C21.6601 62.8529 21.7276 62.8123 21.8027 62.8004C21.8778 62.7886 21.9545 62.8065 22.0167 62.8503C22.1834 62.9715 38.8474 74.8148 62.9957 70.5034C63.0334 70.497 63.072 70.498 63.1094 70.5066C63.1467 70.5151 63.182 70.531 63.2132 70.5532C63.2444 70.5755 63.271 70.6037 63.2914 70.6362C63.3117 70.6688 63.3255 70.705 63.3319 70.7429C63.3383 70.7808 63.3373 70.8196 63.3287 70.8571C63.3202 70.8946 63.3044 70.93 63.2823 70.9613C63.2601 70.9927 63.2321 71.0194 63.1996 71.0398C63.1672 71.0603 63.1311 71.0741 63.0934 71.0806C59.5697 71.7087 55.9977 72.0235 52.4189 72.0213Z" fill="#E6E7E8"/>
<path d="M34.0706 57.6616C34.0328 57.6702 33.9935 57.6702 33.9557 57.6616C15.8545 49.4313 11.4342 39.2503 11.3882 39.1521C11.3717 39.117 11.3625 39.0789 11.361 39.0401C11.3596 39.0013 11.366 38.9625 11.3798 38.9263C11.3936 38.89 11.4146 38.8569 11.4414 38.8289C11.4683 38.801 11.5005 38.7788 11.5361 38.7636C11.5717 38.7485 11.61 38.7407 11.6487 38.7407C11.6873 38.7408 11.7256 38.7487 11.7612 38.7639C11.7968 38.7792 11.8289 38.8015 11.8557 38.8295C11.8824 38.8576 11.9033 38.8907 11.917 38.927C11.917 38.927 13.0034 41.4608 16.2742 44.9468C19.292 48.1616 24.8505 52.8885 34.1913 57.1363C34.2606 57.1678 34.3146 57.2256 34.3415 57.297C34.3685 57.3684 34.3661 57.4476 34.335 57.5173C34.3076 57.5626 34.2687 57.5999 34.2222 57.6253C34.1758 57.6506 34.1235 57.6631 34.0706 57.6616Z" fill="#E6E7E8"/>
<path d="M66.4158 60.9513C66.3396 60.9513 66.2665 60.9209 66.2126 60.8667C66.1587 60.8126 66.1284 60.7392 66.1284 60.6627C66.1299 60.5866 66.1606 60.5141 66.2142 60.4603C66.2678 60.4065 66.3401 60.3756 66.4158 60.3741C66.5193 60.3741 76.4867 60.3741 81.0393 58.1405C81.0736 58.1209 81.1116 58.1086 81.1508 58.1044C81.19 58.1002 81.2297 58.1041 81.2674 58.116C81.3051 58.1279 81.3399 58.1474 81.3697 58.1734C81.3995 58.1993 81.4237 58.2312 81.4407 58.2669C81.4577 58.3027 81.4672 58.3416 81.4686 58.3812C81.47 58.4208 81.4633 58.4603 81.4488 58.4972C81.4343 58.534 81.4124 58.5675 81.3845 58.5955C81.3566 58.6235 81.3232 58.6455 81.2865 58.66C76.6189 60.9282 66.8354 60.9513 66.4158 60.9513Z" fill="#E6E7E8"/>
<path d="M53.7928 50.6145L52.3787 49.0966L50.3381 49.4083L51.3326 47.5845L50.4129 45.726L52.442 46.1243L53.9135 44.6641L54.1722 46.7245L56.0059 47.6826L54.132 48.5656L53.7928 50.6145Z" fill="#3343EA"/>
<path d="M72.6007 52.4499L71.727 51.5149L70.4624 51.7054L71.0832 50.5799L70.5084 49.4314L71.7673 49.6738L72.6755 48.7734L72.8364 50.049L73.9688 50.6377L72.8134 51.186L72.6007 52.4499Z" fill="#3343EA"/>
<path d="M64.0763 88.0893L61.0643 86.3174L57.9028 87.8065L58.6558 84.384L56.2703 81.8214L59.7422 81.4809L61.4322 78.4104L62.829 81.6194L66.2549 82.2831L63.6452 84.6148L64.0763 88.0893Z" fill="#3343EA"/>
<path d="M43.078 66.5961L41.2041 64.5876L38.491 64.9974L39.8188 62.5849L38.5887 60.1262L41.2846 60.6456L43.2332 58.7122L43.5724 61.4479L46.0096 62.7119L43.5264 63.8835L43.078 66.5961Z" fill="#3343EA"/>
<path d="M7.22628 30.062C7.15005 30.0704 7.07362 30.0481 7.01379 29.9999C6.95396 29.9517 6.91564 29.8817 6.90725 29.8051C6.89887 29.7286 6.92111 29.6519 6.96908 29.5918C7.01705 29.5317 7.08682 29.4932 7.16305 29.4848L94.8175 10.2136C94.8553 10.2056 94.8942 10.2052 94.9321 10.2123C94.97 10.2195 95.0062 10.2341 95.0384 10.2552C95.0707 10.2764 95.0986 10.3038 95.1203 10.3357C95.1421 10.3677 95.1574 10.4037 95.1653 10.4415C95.1732 10.4794 95.1737 10.5185 95.1665 10.5566C95.1594 10.5947 95.1449 10.6309 95.1238 10.6634C95.1027 10.6958 95.0755 10.7237 95.0436 10.7456C95.0118 10.7674 94.976 10.7828 94.9383 10.7907L7.28951 30.062H7.22628Z" fill="#231F20"/>
<path d="M11.2963 26.9048C11.9407 26.9048 12.4632 26.3802 12.4632 25.7331C12.4632 25.0861 11.9407 24.5615 11.2963 24.5615C10.6518 24.5615 10.1294 25.0861 10.1294 25.7331C10.1294 26.3802 10.6518 26.9048 11.2963 26.9048Z" fill="#3343EA"/>
<path d="M15.4694 25.8372C16.1138 25.8372 16.6363 25.3126 16.6363 24.6655C16.6363 24.0185 16.1138 23.4939 15.4694 23.4939C14.8249 23.4939 14.3025 24.0185 14.3025 24.6655C14.3025 25.3126 14.8249 25.8372 15.4694 25.8372Z" fill="#E6E7E8"/>
<path d="M19.4413 24.9194C20.0858 24.9194 20.6082 24.3949 20.6082 23.7478C20.6082 23.1007 20.0858 22.5762 19.4413 22.5762C18.7968 22.5762 18.2744 23.1007 18.2744 23.7478C18.2744 24.3949 18.7968 24.9194 19.4413 24.9194Z" fill="#E6E7E8"/>
<path d="M80.9547 21.5263L28.9355 33.7961C27.2851 34.1854 26.2616 35.8443 26.6492 37.5013L26.6506 37.5069C27.0382 39.164 28.6904 40.1917 30.3407 39.8024L82.36 27.5326C84.0103 27.1434 85.0339 25.4845 84.6462 23.8275L84.6449 23.8218C84.2572 22.1648 82.6051 21.1371 80.9547 21.5263Z" fill="#E6E7E8"/>
</svg>
