<svg width="174" height="33" viewBox="0 0 174 33" fill="none" xmlns="http://www.w3.org/2000/svg">
<path d="M139.228 17.4047C138.957 16.1761 138.526 15.3484 138.081 14.6505C137.635 13.9527 137.171 13.3848 136.659 12.8652C136.147 12.3455 135.583 11.8815 135.011 11.4918C134.436 11.1058 133.853 10.794 133.307 10.5638C132.762 10.3337 132.257 10.1778 131.722 10.0813C131.184 9.98109 130.616 9.94026 129.993 9.94026C129.369 9.94026 128.69 9.98109 128.07 10.059C127.45 10.137 126.893 10.2483 125.416 10.8422C125.416 10.3226 125.416 9.80292 125.416 9.28326C123.541 9.28326 121.667 9.28326 119.792 9.28326C119.792 16.7143 119.792 24.1491 119.792 31.5801C121.619 31.5801 123.449 31.5801 125.275 31.5801C125.275 27.3227 125.275 23.0652 125.275 18.8115C125.275 18.5517 125.427 18.2139 125.639 17.8724C125.85 17.5309 126.129 17.1857 126.385 16.9259C126.641 16.6661 126.878 16.4916 127.142 16.3283C127.405 16.165 127.695 16.0091 127.988 15.9014C128.281 15.7938 128.582 15.7307 128.909 15.7121C129.235 15.6936 129.592 15.7158 129.911 15.753C130.23 15.7901 130.516 15.8346 130.798 15.9163C131.08 15.9979 131.358 16.1167 131.626 16.2578C131.893 16.3988 132.145 16.5584 132.424 16.7551C132.698 16.9519 132.995 17.1857 133.237 17.4418C133.478 17.6979 133.66 17.9838 133.66 18.8115C133.66 23.0058 133.66 27.1965 133.66 31.3908C135.516 31.3908 137.372 31.3908 139.228 31.3908C139.228 26.7288 139.228 22.0668 139.228 17.4047Z" fill="white"/>
<path d="M71.751 17.4047C71.48 16.1761 71.0494 15.3484 70.604 14.6505C70.1586 13.9527 69.6946 13.3848 69.1824 12.8652C68.6702 12.3455 68.106 11.8815 67.5344 11.4918C66.959 11.1058 66.3763 10.794 65.8306 10.5638C65.285 10.3337 64.7802 10.1778 64.2457 10.0813C63.7075 9.98109 63.1396 9.94026 62.516 9.94026C61.8924 9.94026 61.2131 9.98109 60.5933 10.059C59.9734 10.137 59.4166 10.2483 57.9393 10.8422C57.9393 10.3226 57.9393 9.80292 57.9393 9.28326C56.0648 9.28326 54.1904 9.28326 52.3159 9.28326C52.3159 16.7143 52.3159 24.1491 52.3159 31.5801C54.1421 31.5801 55.9721 31.5801 57.7983 31.5801C57.7983 27.3227 57.7983 23.0652 57.7983 18.8115C57.7983 18.5517 57.9505 18.2139 58.162 17.8724C58.3773 17.5309 58.652 17.1857 58.9081 16.9259C59.1642 16.6661 59.4018 16.4916 59.6653 16.3283C59.9288 16.165 60.2184 16.0091 60.5116 15.9014C60.8048 15.7938 61.1055 15.7307 61.4321 15.7121C61.7588 15.6936 62.1151 15.7158 62.4343 15.753C62.7535 15.7864 63.0393 15.8346 63.3214 15.9163C63.6035 15.9979 63.8819 16.1167 64.1492 16.2578C64.4164 16.3988 64.6688 16.5584 64.9435 16.7551C65.2182 16.9519 65.5151 17.1857 65.7564 17.4418C65.9977 17.6979 66.1795 17.9838 66.1795 18.8115C66.1795 23.0058 66.1795 27.1965 66.1795 31.3908C68.0355 31.3908 69.8914 31.3908 71.7473 31.3908C71.751 26.7288 71.751 22.0668 71.751 17.4047Z" fill="white"/>
<path d="M38.0663 8.81927L32.3687 10.8608V31.5801H38.0663V8.81927Z" fill="white"/>
<path d="M1.86114 9.76953H19.251V14.0381L9.72276 25.953H19.0171V31.5801H1V27.3153L11.0405 15.0514H1.86114V9.76953Z" fill="#3343EA" stroke="#3343EA" stroke-linecap="round" stroke-linejoin="round"/>
<path fill-rule="evenodd" clip-rule="evenodd" d="M174 2.03779V20.4707C174 25.4964 170.652 29.9024 165.808 31.2423C160.968 32.586 155.827 30.5408 153.232 26.2388C150.638 21.9368 151.232 16.4322 154.684 12.7835C158.136 9.13477 163.596 8.2328 168.039 10.5787V0C170.027 0.678945 172.012 1.35789 173.997 2.03684L174 2.03779ZM158.875 16.6252C159.899 15.6045 161.28 15.0329 162.724 15.0329C164.168 15.0329 165.548 15.6045 166.573 16.6252C167.594 17.6497 168.165 19.0268 168.165 20.4744C168.165 21.922 167.594 23.3028 166.573 24.3235C165.548 25.3443 164.168 25.9159 162.724 25.9159C161.276 25.9159 159.895 25.3443 158.875 24.3235C157.854 23.2991 157.282 21.922 157.282 20.4744C157.282 19.0268 157.854 17.646 158.875 16.6252Z" fill="white"/>
<path fill-rule="evenodd" clip-rule="evenodd" d="M89.6234 11.102C92.9937 9.11992 97.1583 9.06796 100.577 10.9684V9.27582H106.252V31.5504H100.577V30.255C97.1583 32.1554 92.9937 32.1035 89.6234 30.1214C86.253 28.1393 84.1855 24.5202 84.1855 20.6117C84.1855 16.7032 86.253 13.0841 89.6234 11.102ZM91.4979 16.8962C92.4853 15.9088 93.8215 15.3558 95.2172 15.3558C96.6165 15.3558 97.9491 15.9051 98.9364 16.8962C99.9237 17.8835 100.477 19.2198 100.477 20.6154C100.477 22.0148 99.9237 23.3473 98.9364 24.3346C97.9453 25.322 96.6128 25.875 95.2172 25.875C93.8178 25.875 92.4853 25.322 91.4979 24.3346C90.5106 23.3436 89.9575 22.011 89.9575 20.6154C89.9575 19.216 90.5106 17.8835 91.4979 16.8962Z" fill="white"/>
</svg>
