<svg width="175" height="34" viewBox="0 0 175 34" fill="none" xmlns="http://www.w3.org/2000/svg">
<path d="M139.228 18.4047C138.957 17.176 138.526 16.3483 138.081 15.6505C137.635 14.9527 137.171 14.3848 136.659 13.8651C136.147 13.3455 135.583 12.8815 135.011 12.4917C134.436 12.1057 133.853 11.7939 133.307 11.5638C132.762 11.3336 132.257 11.1778 131.722 11.0812C131.184 10.981 130.616 10.9402 129.993 10.9402C129.369 10.9402 128.69 10.981 128.07 11.059C127.45 11.1369 126.893 11.2483 125.416 11.8422C125.416 11.3225 125.416 10.8029 125.416 10.2832C123.542 10.2832 121.667 10.2832 119.793 10.2832C119.793 17.7143 119.793 25.149 119.793 32.5801C121.619 32.5801 123.449 32.5801 125.275 32.5801C125.275 28.3226 125.275 24.0652 125.275 19.8114C125.275 19.5516 125.427 19.2138 125.639 18.8723C125.85 18.5309 126.129 18.1857 126.385 17.9258C126.641 17.666 126.879 17.4915 127.142 17.3282C127.406 17.1649 127.695 17.009 127.988 16.9014C128.282 16.7937 128.582 16.7306 128.909 16.7121C129.236 16.6935 129.592 16.7158 129.911 16.7529C130.23 16.79 130.516 16.8346 130.798 16.9162C131.08 16.9979 131.359 17.1167 131.626 17.2577C131.893 17.3988 132.146 17.5584 132.424 17.7551C132.699 17.9518 132.996 18.1857 133.237 18.4418C133.478 18.6979 133.66 18.9837 133.66 19.8114C133.66 24.0058 133.66 28.1964 133.66 32.3908C135.516 32.3908 137.372 32.3908 139.228 32.3908C139.228 27.7287 139.228 23.0667 139.228 18.4047Z" fill="black" stroke="black" stroke-width="0.2835" stroke-linecap="round" stroke-linejoin="round"/>
<path d="M71.751 18.4047C71.48 17.176 71.0494 16.3483 70.604 15.6505C70.1586 14.9527 69.6946 14.3848 69.1824 13.8651C68.6702 13.3455 68.106 12.8815 67.5344 12.4917C66.959 12.1057 66.3763 11.7939 65.8306 11.5638C65.285 11.3336 64.7802 11.1778 64.2457 11.0812C63.7075 10.981 63.1396 10.9402 62.516 10.9402C61.8924 10.9402 61.2131 10.981 60.5933 11.059C59.9734 11.1369 59.4166 11.2483 57.9393 11.8422C57.9393 11.3225 57.9393 10.8029 57.9393 10.2832C56.0648 10.2832 54.1904 10.2832 52.3159 10.2832C52.3159 17.7143 52.3159 25.149 52.3159 32.5801C54.1421 32.5801 55.9721 32.5801 57.7983 32.5801C57.7983 28.3226 57.7983 24.0652 57.7983 19.8114C57.7983 19.5516 57.9505 19.2138 58.162 18.8723C58.3773 18.5309 58.652 18.1857 58.9081 17.9258C59.1642 17.666 59.4018 17.4915 59.6653 17.3282C59.9288 17.1649 60.2184 17.009 60.5116 16.9014C60.8048 16.7937 61.1055 16.7306 61.4321 16.7121C61.7588 16.6935 62.1151 16.7158 62.4343 16.7529C62.7535 16.7863 63.0393 16.8346 63.3214 16.9162C63.6035 16.9979 63.8819 17.1167 64.1492 17.2577C64.4164 17.3988 64.6688 17.5584 64.9435 17.7551C65.2182 17.9518 65.5151 18.1857 65.7564 18.4418C65.9977 18.6979 66.1795 18.9837 66.1795 19.8114C66.1795 24.0058 66.1795 28.1964 66.1795 32.3908C68.0355 32.3908 69.8914 32.3908 71.7473 32.3908C71.751 27.7287 71.751 23.0667 71.751 18.4047Z" fill="black" stroke="black" stroke-width="0.2835" stroke-linecap="round" stroke-linejoin="round"/>
<path d="M38.0663 9.81934L32.3687 11.8608V32.5802H38.0663V9.81934Z" fill="black" stroke="black" stroke-width="0.2835" stroke-linecap="round" stroke-linejoin="round"/>
<path d="M1.86114 10.7695H19.251V15.0381L9.72276 26.953H19.0171V32.5801H1V28.3153L11.0405 16.0514H1.86114V10.7695Z" fill="#3343EA" stroke="#3343EA" stroke-linecap="round" stroke-linejoin="round"/>
<path fill-rule="evenodd" clip-rule="evenodd" d="M174 3.03779V21.4707C174 26.4964 170.652 30.9024 165.808 32.2423C160.968 33.586 155.827 31.5408 153.232 27.2388C150.638 22.9368 151.232 17.4322 154.684 13.7835C158.136 10.1348 163.596 9.2328 168.039 11.5787V1C170.027 1.67895 172.012 2.35789 173.997 3.03684L174 3.03779ZM158.875 17.6251C159.899 16.6043 161.28 16.0327 162.724 16.0327C164.168 16.0327 165.549 16.6043 166.573 17.6251C167.594 18.6495 168.166 20.0266 168.166 21.4742C168.166 22.9218 167.594 24.3026 166.573 25.3234C165.549 26.3441 164.168 26.9158 162.724 26.9158C161.276 26.9158 159.896 26.3441 158.875 25.3234C157.854 24.2989 157.282 22.9218 157.282 21.4742C157.282 20.0266 157.854 18.6458 158.875 17.6251Z" fill="black"/>
<path d="M174 3.03779H174.142C174.142 2.97717 174.103 2.92326 174.046 2.90366L174 3.03779ZM165.808 32.2423L165.77 32.1057L165.77 32.1058L165.808 32.2423ZM153.232 27.2388L153.111 27.312L153.111 27.312L153.232 27.2388ZM154.684 13.7835L154.787 13.8809L154.787 13.8809L154.684 13.7835ZM168.039 11.5787L167.973 11.704C168.017 11.7272 168.069 11.7257 168.112 11.7001C168.155 11.6744 168.181 11.6284 168.181 11.5787H168.039ZM168.039 1L168.085 0.865853C168.041 0.851072 167.994 0.858093 167.956 0.884706C167.919 0.91132 167.897 0.954254 167.897 1H168.039ZM173.997 3.03684L173.951 3.17096L173.951 3.17097L173.997 3.03684ZM158.875 17.6251L158.775 17.5247L158.775 17.5248L158.875 17.6251ZM166.573 17.6251L166.674 17.525L166.673 17.5247L166.573 17.6251ZM166.573 25.3234L166.673 25.4238L166.673 25.4236L166.573 25.3234ZM158.875 25.3234L158.774 25.4234L158.775 25.4236L158.875 25.3234ZM174.142 21.4707V3.03779H173.858V21.4707H174.142ZM165.846 32.379C170.751 31.022 174.142 26.5601 174.142 21.4707H173.858C173.858 26.4328 170.553 30.7828 165.77 32.1057L165.846 32.379ZM153.111 27.312C155.738 31.6685 160.944 33.7396 165.846 32.3789L165.77 32.1058C160.991 33.4324 155.916 31.4131 153.354 27.1656L153.111 27.312ZM154.581 13.6861C151.085 17.3811 150.484 22.9555 153.111 27.312L153.354 27.1656C150.792 22.9182 151.379 17.4833 154.787 13.8809L154.581 13.6861ZM168.105 11.4533C163.606 9.07775 158.076 9.99114 154.581 13.6861L154.787 13.8809C158.195 10.2784 163.586 9.38786 167.973 11.704L168.105 11.4533ZM167.897 1V11.5787H168.181V1H167.897ZM174.043 2.90271C172.058 2.22377 170.073 1.54481 168.085 0.865853L167.993 1.13415C169.982 1.81308 171.966 2.49201 173.951 3.17096L174.043 2.90271ZM174.046 2.90366L174.043 2.90271L173.951 3.17097L173.954 3.17192L174.046 2.90366ZM162.724 15.891C161.242 15.891 159.826 16.4775 158.775 17.5247L158.975 17.7255C159.973 16.7311 161.318 16.1745 162.724 16.1745V15.891ZM166.673 17.5247C165.622 16.4775 164.206 15.891 162.724 15.891V16.1745C164.13 16.1745 165.475 16.7311 166.473 17.7255L166.673 17.5247ZM168.307 21.4742C168.307 19.989 167.721 18.5759 166.674 17.525L166.473 17.7251C167.467 18.7231 168.024 20.0643 168.024 21.4742H168.307ZM166.673 25.4236C167.721 24.3762 168.307 22.9594 168.307 21.4742H168.024C168.024 22.8843 167.467 24.229 166.473 25.2232L166.673 25.4236ZM162.724 27.0575C164.206 27.0575 165.622 26.4709 166.673 25.4238L166.473 25.223C165.475 26.2173 164.13 26.774 162.724 26.774V27.0575ZM158.775 25.4236C159.822 26.471 161.239 27.0575 162.724 27.0575V26.774C161.314 26.774 159.969 26.2173 158.975 25.2232L158.775 25.4236ZM157.141 21.4742C157.141 22.9595 157.727 24.3725 158.774 25.4234L158.975 25.2233C157.981 24.2253 157.424 22.8842 157.424 21.4742H157.141ZM158.775 17.5248C157.727 18.5722 157.141 19.9891 157.141 21.4742H157.424C157.424 20.0641 157.981 18.7194 158.975 17.7253L158.775 17.5248Z" fill="black"/>
<path fill-rule="evenodd" clip-rule="evenodd" d="M89.6231 12.1021C92.9934 10.12 97.1581 10.068 100.577 11.9685V10.2759H106.252V32.5505H100.577V31.2551C97.1581 33.1555 92.9934 33.1035 89.6231 31.1214C86.2528 29.1393 84.1853 25.5203 84.1853 21.6118C84.1853 17.7032 86.2528 14.0842 89.6231 12.1021ZM91.4979 17.8964C92.4853 16.909 93.8215 16.356 95.2172 16.356C96.6165 16.356 97.9491 16.9053 98.9364 17.8964C99.9237 18.8837 100.477 20.22 100.477 21.6156C100.477 23.015 99.9237 24.3475 98.9364 25.3348C97.9453 26.3222 96.6128 26.8752 95.2172 26.8752C93.8178 26.8752 92.4853 26.3222 91.4979 25.3348C90.5106 24.3438 89.9575 23.0112 89.9575 21.6156C89.9575 20.2162 90.5106 18.8837 91.4979 17.8964Z" fill="black"/>
<path d="M100.577 11.9685L100.509 12.0908C100.552 12.1149 100.605 12.1143 100.648 12.0891C100.69 12.064 100.717 12.0181 100.717 11.9685H100.577ZM89.6231 12.1021L89.6941 12.2228L89.6231 12.1021ZM100.577 10.2759V10.1359C100.499 10.1359 100.437 10.1986 100.437 10.2759H100.577ZM106.252 10.2759H106.392C106.392 10.1986 106.329 10.1359 106.252 10.1359V10.2759ZM106.252 32.5505V32.6905C106.329 32.6905 106.392 32.6278 106.392 32.5505H106.252ZM100.577 32.5505H100.437C100.437 32.6278 100.499 32.6905 100.577 32.6905V32.5505ZM100.577 31.2551H100.717C100.717 31.2054 100.69 31.1595 100.648 31.1344C100.605 31.1092 100.552 31.1086 100.509 31.1327L100.577 31.2551ZM91.4979 17.8964L91.3989 17.7974L91.3989 17.7974L91.4979 17.8964ZM98.9364 17.8964L98.8372 17.9952L98.8374 17.9954L98.9364 17.8964ZM98.9364 25.3348L99.0352 25.434L99.0354 25.4338L98.9364 25.3348ZM91.4979 25.3348L91.3987 25.4336L91.3989 25.4338L91.4979 25.3348ZM100.645 11.8461C97.1827 9.92154 92.9652 9.97417 89.5521 11.9814L89.6941 12.2228C93.0217 10.2658 97.1335 10.2145 100.509 12.0908L100.645 11.8461ZM100.437 10.2759V11.9685H100.717V10.2759H100.437ZM106.252 10.1359H100.577V10.4159H106.252V10.1359ZM106.392 32.5505V10.2759H106.112V32.5505H106.392ZM100.577 32.6905H106.252V32.4105H100.577V32.6905ZM100.437 31.2551V32.5505H100.717V31.2551H100.437ZM89.5521 31.2421C92.9652 33.2493 97.1827 33.302 100.645 31.3774L100.509 31.1327C97.1335 33.009 93.0217 32.9577 89.6941 31.0007L89.5521 31.2421ZM84.0453 21.6118C84.0453 25.5699 86.139 29.2348 89.5521 31.2421L89.6941 31.0007C86.3666 29.0438 84.3253 25.4707 84.3253 21.6118H84.0453ZM89.5521 11.9814C86.139 13.9887 84.0453 17.6537 84.0453 21.6118H84.3253C84.3253 17.7528 86.3666 14.1797 89.6941 12.2228L89.5521 11.9814ZM95.2172 16.216C93.7844 16.216 92.4125 16.7838 91.3989 17.7974L91.5969 17.9954C92.558 17.0343 93.8586 16.496 95.2172 16.496V16.216ZM99.0356 17.7975C98.0218 16.7799 96.6534 16.216 95.2172 16.216V16.496C96.5796 16.496 97.8763 17.0307 98.8372 17.9952L99.0356 17.7975ZM100.617 21.6156C100.617 20.1828 100.049 18.811 99.0354 17.7974L98.8374 17.9954C99.7985 18.9564 100.337 20.2571 100.337 21.6156H100.617ZM99.0354 25.4338C100.049 24.4203 100.617 23.0521 100.617 21.6156H100.337C100.337 22.9778 99.7985 24.2747 98.8374 25.2358L99.0354 25.4338ZM95.2172 27.0152C96.6501 27.0152 98.0181 26.4473 99.0352 25.434L98.8376 25.2357C97.8726 26.197 96.5755 26.7352 95.2172 26.7352V27.0152ZM91.3989 25.4338C92.4125 26.4474 93.7806 27.0152 95.2172 27.0152V26.7352C93.855 26.7352 92.558 26.197 91.5969 25.2358L91.3989 25.4338ZM89.8175 21.6156C89.8175 23.0485 90.3854 24.4165 91.3987 25.4336L91.5971 25.236C90.6357 24.2711 90.0975 22.974 90.0975 21.6156H89.8175ZM91.3989 17.7974C90.3854 18.8109 89.8175 20.1791 89.8175 21.6156H90.0975C90.0975 20.2534 90.6358 18.9565 91.5969 17.9954L91.3989 17.7974Z" fill="black"/>
</svg>
